<svg width="25" height="25" viewBox="0 0 25 25" fill="none" xmlns="http://www.w3.org/2000/svg">
<g clip-path="url(#clip0)">
<path d="M11.9766 13.1905C12.0014 13.1905 12.0263 13.1905 12.0561 13.1905C12.066 13.1905 12.076 13.1905 12.0859 13.1905C12.1008 13.1905 12.1207 13.1905 12.1356 13.1905C13.5918 13.1652 14.7697 12.643 15.6394 11.6443C17.5529 9.44424 17.2348 5.67263 17.2 5.3127C17.0758 2.61073 15.8233 1.31804 14.7896 0.714782C14.0192 0.263607 13.1197 0.0202775 12.1157 0H12.0809C12.076 0 12.066 0 12.0611 0H12.0312C11.4796 0 10.3961 0.0912487 9.3574 0.694504C8.3137 1.29776 7.04139 2.59045 6.91714 5.3127C6.88235 5.67263 6.56427 9.44424 8.47771 11.6443C9.34249 12.643 10.5204 13.1652 11.9766 13.1905ZM8.24412 5.43944C8.24412 5.42423 8.24909 5.40902 8.24909 5.39888C8.4131 1.76414 10.9428 1.3738 12.0263 1.3738H12.0462C12.0561 1.3738 12.071 1.3738 12.0859 1.3738C13.4278 1.40422 15.709 1.96185 15.8631 5.39888C15.8631 5.41409 15.8631 5.4293 15.8681 5.43944C15.873 5.47492 16.2209 8.9221 14.6405 10.7369C14.0143 11.4568 13.1793 11.8116 12.0809 11.8218C12.071 11.8218 12.066 11.8218 12.0561 11.8218C12.0462 11.8218 12.0412 11.8218 12.0312 11.8218C10.9378 11.8116 10.0979 11.4568 9.47667 10.7369C7.90119 8.93223 8.23915 5.46985 8.24412 5.43944Z" fill="#131429"/>
<path d="M22.2695 19.4462C22.2695 19.4411 22.2695 19.436 22.2695 19.4309C22.2695 19.3904 22.2645 19.3498 22.2645 19.3042C22.2347 18.3005 22.1701 15.9534 20.0131 15.2031C19.9982 15.198 19.9783 15.193 19.9634 15.1879C17.722 14.6049 15.8582 13.2869 15.8383 13.2717C15.5352 13.0537 15.1177 13.1297 14.904 13.4389C14.6903 13.7482 14.7648 14.174 15.068 14.392C15.1525 14.4528 17.1305 15.857 19.6056 16.5059C20.7636 16.9267 20.8928 18.189 20.9276 19.3448C20.9276 19.3904 20.9276 19.4309 20.9326 19.4715C20.9375 19.9277 20.9077 20.6324 20.8282 21.0379C20.023 21.5043 16.8671 23.1164 12.0661 23.1164C7.28501 23.1164 4.1092 21.4993 3.29909 21.0329C3.21957 20.6273 3.18478 19.9227 3.19472 19.4664C3.19472 19.4259 3.19969 19.3853 3.19969 19.3397C3.23448 18.1839 3.3637 16.9216 4.5217 16.5008C6.99675 15.852 8.9748 14.4427 9.05929 14.3869C9.36246 14.1689 9.43701 13.7431 9.2233 13.4339C9.00959 13.1246 8.59211 13.0486 8.28894 13.2666C8.26906 13.2818 6.41526 14.5998 4.16387 15.1828C4.14399 15.1879 4.12908 15.1929 4.11417 15.198C1.9572 15.9534 1.89259 18.3005 1.86277 19.2991C1.86277 19.3448 1.86277 19.3853 1.8578 19.4259C1.8578 19.4309 1.8578 19.436 1.8578 19.4411C1.85283 19.7047 1.84786 21.0582 2.11127 21.7375C2.16097 21.8693 2.25043 21.9808 2.36971 22.0569C2.5188 22.1583 6.09221 24.48 12.0711 24.48C18.05 24.48 21.6234 22.1532 21.7725 22.0569C21.8868 21.9808 21.9812 21.8693 22.0309 21.7375C22.2794 21.0633 22.2744 19.7098 22.2695 19.4462Z" fill="#131429"/>
</g>
<defs>
<clipPath id="clip0">
<path d="M0.0634766 0H24.0635V24.48H0.0634766V0Z" fill="white"/>
</clipPath>
</defs>
</svg>
