<svg width="24" height="24" viewBox="0 0 24 24" fill="none" xmlns="http://www.w3.org/2000/svg">
<path d="M21.1917 23.0148C20.0745 20.694 18.0635 18.8709 15.6259 17.9518V16.4841C16.8244 16.4181 19.0842 16.1134 20.4097 14.7575C20.5772 14.5849 20.6433 14.336 20.5823 14.1024C20.5214 13.8688 20.3386 13.686 20.105 13.62C20.0847 13.6149 18.3377 13.0157 18.6881 9.44054C18.8405 7.91705 18.8151 6.54592 18.617 5.36775C18.3885 4.01693 17.9315 2.95556 17.2662 2.21413C16.5451 1.41684 15.6056 1.01058 14.4731 1.01058C14.4274 1.01058 14.3817 1.01058 14.3411 1.01058C13.9095 0.634786 12.9649 0 11.5176 0C10.8422 0 10.1363 0.137114 9.41516 0.41642L9.3847 0.426576C8.81593 0.639865 7.75964 1.04105 6.86586 2.22937C5.82481 3.61066 5.32714 5.65722 5.38808 8.30808C5.44902 10.964 5.01229 12.2641 4.63649 12.8887C4.32672 13.4016 4.03218 13.5032 3.956 13.5235C3.69701 13.5032 3.4888 13.6352 3.35676 13.8587C3.21965 14.0872 3.27043 14.3766 3.42278 14.6001C3.48372 14.6915 3.8392 15.1689 4.69743 15.631C5.67754 16.1591 6.90141 16.4587 8.34872 16.5197V17.9162C5.94161 18.8303 3.94077 20.6686 2.80831 23.0199C2.70674 23.2332 2.72198 23.482 2.84386 23.6801C2.97081 23.8781 3.18918 24 3.42278 24H20.5772C20.8109 24 21.0343 23.8781 21.1562 23.6801C21.2781 23.4769 21.2933 23.2281 21.1917 23.0148ZM4.59079 22.6238C5.6877 20.9378 7.33307 19.6631 9.23742 19.0487C9.52181 18.9573 9.71478 18.6932 9.71478 18.3986V15.8443C9.71478 15.6614 9.64369 15.4837 9.51165 15.3567C9.37962 15.2298 9.20696 15.1536 9.02414 15.1587C7.04868 15.179 5.85528 14.727 5.20526 14.3411C5.25097 14.2954 5.30175 14.2497 5.35253 14.1989C6.35296 13.1579 6.82524 11.1672 6.75922 8.27761C6.62718 2.94033 8.89718 2.07702 9.86205 1.71138L9.89252 1.70123C10.4613 1.48794 11.0047 1.37622 11.5074 1.37622C12.8176 1.37622 13.488 2.09733 13.5438 2.16335C13.686 2.34109 13.9044 2.42742 14.1329 2.40711C14.2446 2.39695 14.3563 2.39187 14.463 2.39187C15.1993 2.39187 15.7833 2.63563 16.2404 3.14346C17.2053 4.2099 17.6014 6.45959 17.317 9.31358C17.0326 12.193 17.9315 13.6352 18.7084 14.336C17.6623 14.9149 16.1744 15.1333 15.0521 15.1333C14.9911 15.1333 14.9556 15.1333 14.9505 15.1333C14.7677 15.1282 14.5849 15.1993 14.4528 15.3263C14.3208 15.4532 14.2446 15.631 14.2446 15.8189V18.4444C14.2446 18.744 14.4376 19.003 14.722 19.0944C16.6517 19.719 18.3022 20.9784 19.394 22.6339H4.59079V22.6238Z" fill="#131429"/>
</svg>
