<svg width="25" height="24" viewBox="0 0 25 24" fill="none" xmlns="http://www.w3.org/2000/svg">
<g clip-path="url(#clip0)">
<path d="M1.56561 10.8595C1.23132 10.8595 0.960938 11.1299 0.960938 11.4642V22.7563C0.960938 23.0905 1.23132 23.3609 1.56561 23.3609H7.0863C7.42058 23.3609 7.69097 23.0905 7.69097 22.7563V11.4642C7.69097 11.1299 7.42058 10.8595 7.0863 10.8595H1.56561V10.8595ZM6.48163 22.1516H2.16536V12.0639H6.48163V22.1516Z" fill="#131429"/>
<path d="M9.59814 1.24371V22.7562C9.59814 23.0905 9.86853 23.3609 10.2028 23.3609H15.7235C16.0578 23.3609 16.3282 23.0905 16.3282 22.7562V1.24371C16.3282 0.909419 16.0578 0.639038 15.7235 0.639038H10.1979C9.86853 0.643954 9.59814 0.909419 9.59814 1.24371ZM10.8026 1.84838H15.1188V22.1565H10.8026V1.84838Z" fill="#131429"/>
<path d="M24.3563 23.3559C24.6906 23.3559 24.961 23.0855 24.961 22.7512V8.26373C24.961 7.92944 24.6906 7.65906 24.3563 7.65906H18.8356C18.5013 7.65906 18.231 7.92944 18.231 8.26373V22.7562C18.231 23.0904 18.5013 23.3608 18.8356 23.3608H24.3563V23.3559V23.3559ZM19.4403 8.8684H23.7566V22.1564H19.4403V8.8684Z" fill="#131429"/>
</g>
<defs>
<clipPath id="clip0">
<path d="M0.960938 0H24.9609V24H0.960938V0Z" fill="white"/>
</clipPath>
</defs>
</svg>
