<svg width="24" height="24" viewBox="0 0 24 24" fill="none" xmlns="http://www.w3.org/2000/svg">
<path fill-rule="evenodd" clip-rule="evenodd" d="M4.43476 23.437C4.83005 23.6403 5.30562 23.6049 5.66625 23.345L11.9999 18.7935L18.3337 23.3447C18.6946 23.6042 19.1697 23.6395 19.5648 23.4361C19.9596 23.2327 20.208 22.8249 20.208 22.3801V1.04954C20.208 0.708539 19.932 0.432007 19.5916 0.432007H4.40812C4.06793 0.432007 3.79199 0.708551 3.79199 1.04954V22.38C3.79154 22.8253 4.03969 23.2334 4.43476 23.437ZM12.3312 17.5706C12.2817 17.5351 12.228 17.5084 12.1721 17.4907C12.078 17.4607 11.9778 17.456 11.8819 17.4765C11.8068 17.4924 11.7343 17.5238 11.6692 17.5706L4.97673 22.38M11.6412 17.5317L5.02468 22.2864V1.66707H18.9755V22.2862L12.3592 17.5316C12.1445 17.3775 11.8557 17.3774 11.6412 17.5317Z" fill="#131429"/>
</svg>
