<svg width="24" height="24" viewBox="0 0 24 24" fill="none" xmlns="http://www.w3.org/2000/svg">
<path d="M15.4454 4.19739H4.28831C3.24141 4.19739 2.39111 5.04768 2.39111 6.09458V22.1028C2.39111 23.1497 3.24141 24 4.28831 24H15.4454C16.4923 24 17.3426 23.1497 17.3426 22.1028V6.09458C17.3377 5.04768 16.4874 4.19739 15.4454 4.19739ZM16.0106 22.0978C16.0106 22.4124 15.755 22.668 15.4405 22.668H4.28339C3.96883 22.668 3.71325 22.4124 3.71325 22.0978V6.09458C3.71325 5.78002 3.96883 5.52444 4.28339 5.52444H15.4405C15.755 5.52444 16.0106 5.78002 16.0106 6.09458V22.0978Z" fill="#131429"/>
<path d="M19.7115 0H8.55442C7.50752 0 6.65723 0.850297 6.65723 1.89719C6.65723 2.26582 6.95213 2.56072 7.32075 2.56072C7.68938 2.56072 7.98428 2.26582 7.98428 1.89719C7.98428 1.58263 8.23986 1.32705 8.55442 1.32705H19.7115C20.0261 1.32705 20.2816 1.58263 20.2816 1.89719V17.9054C20.2816 18.2199 20.0261 18.4755 19.7115 18.4755C19.3429 18.4755 19.048 18.7704 19.048 19.1391C19.048 19.5077 19.3429 19.8026 19.7115 19.8026C20.7584 19.8026 21.6087 18.9523 21.6087 17.9054V1.89719C21.6087 0.850297 20.7584 0 19.7115 0Z" fill="#131429"/>
</svg>
