<svg width="24" height="24" viewBox="0 0 24 24" fill="none" xmlns="http://www.w3.org/2000/svg">
<g clip-path="url(#clip0)">
<path d="M22.9636 7.68291C23.059 7.42694 23.1493 7.08062 23.1744 6.6791C23.2095 5.9714 23.0339 4.97762 22.0351 4.07419C22.1003 3.61243 22.1003 2.87964 21.6938 2.15187C21.1567 1.18821 20.1077 0.535725 18.5719 0.209484C17.543 -0.0113559 16.1929 -0.0565277 14.5566 0.0689496C11.2591 0.00370144 8.04687 0.410248 7.86618 0.435343L6.68669 0.575878C6.34539 0.334962 5.92881 0.194427 5.48211 0.194427H2.42046C1.26607 0.194427 0.33252 1.133 0.33252 2.28237V10.4384C0.33252 11.5928 1.27109 12.5263 2.42046 12.5263H5.48211C5.84348 12.5263 6.17976 12.436 6.47589 12.2754C6.68669 12.7371 6.99787 13.2641 7.45963 13.751C7.48473 13.7761 7.50982 13.8012 7.53994 13.8213C9.11593 15.0309 10.973 19.3874 11.6305 21.1642C11.5652 21.7163 11.5 22.9108 12.0521 23.5583C12.298 23.8444 12.6393 24 13.0208 24C13.4073 24 14.7423 23.9096 15.5755 22.7603C16.3635 21.6661 16.4087 20.0299 15.706 17.8918C15.1137 16.0949 15.0585 15.2969 15.0786 14.9757C15.3496 15.0359 15.6157 15.0911 15.8716 15.1363H15.8767C15.9218 15.1463 17.026 15.3922 18.346 15.4525C20.2232 15.5428 21.5834 15.2166 22.3764 14.4888C23.4705 13.49 23.34 12.2152 23.0138 11.4021C23.2949 11.0357 23.6362 10.4384 23.6663 9.67549C23.6864 8.98286 23.4555 8.31532 22.9636 7.68291ZM5.48211 11.1762H2.42046C2.01392 11.1762 1.68767 10.8449 1.68767 10.4434V2.28739C1.68767 1.88084 2.01893 1.5546 2.42046 1.5546H5.48211C5.88866 1.5546 6.2149 1.88586 6.2149 2.28739V10.4434C6.2149 10.85 5.88866 11.1762 5.48211 11.1762ZM21.6285 11.6631C21.6285 11.6681 21.8042 11.9441 21.8644 12.3206C21.9397 12.7873 21.8092 13.1738 21.4579 13.495C20.4992 14.3683 17.7387 14.1676 16.1979 13.8263C16.1778 13.8213 16.1577 13.8162 16.1326 13.8112C15.8566 13.761 15.5604 13.7008 15.2593 13.6356C14.9381 13.5201 14.4964 13.5352 14.1651 13.8313C13.4976 14.4236 13.5729 15.7687 14.4111 18.3234C14.9632 19.9998 14.9833 21.2646 14.4713 21.9723C14.0397 22.5695 13.327 22.6448 13.0559 22.6499C12.9355 22.4491 12.9003 21.7615 12.9907 21.1943C13.0057 21.0839 12.9957 20.9685 12.9606 20.858C12.8652 20.6021 10.6618 14.5691 8.40824 12.7823C7.82101 12.1449 7.56503 11.397 7.47469 11.0608C7.53492 10.865 7.57005 10.6542 7.57005 10.4384V2.28739C7.57005 2.13682 7.55499 1.98624 7.52488 1.84571L8.03181 1.78548H8.03683C8.06694 1.78046 11.3344 1.35886 14.5616 1.42912C14.5817 1.42912 14.6068 1.42912 14.6319 1.42912C16.1527 1.30867 17.3824 1.3438 18.2908 1.53954C19.4151 1.78046 20.1579 2.20206 20.4992 2.79934C20.8556 3.41668 20.6598 4.05411 20.6448 4.11434C20.5394 4.39541 20.6347 4.70157 20.8757 4.88226C22.3613 5.9965 21.6787 7.29644 21.5884 7.45705C21.4227 7.71805 21.4629 8.04931 21.6787 8.27517C22.1104 8.72688 22.3212 9.1786 22.3061 9.62028C22.286 10.2778 21.7791 10.7697 21.744 10.7998C21.493 11.0156 21.4478 11.382 21.6285 11.6631Z" fill="#131429"/>
</g>
<defs>
<clipPath id="clip0">
<path d="M0 0H24V24H0V0Z" fill="white"/>
</clipPath>
</defs>
</svg>
