<svg width="25" height="24" viewBox="0 0 25 24" fill="none" xmlns="http://www.w3.org/2000/svg">
<g clip-path="url(#clip0)">
<path d="M24.0386 12C24.0386 5.38336 18.6552 0 12.0386 0C5.42193 0 0.0385742 5.38336 0.0385742 12C0.0385742 18.6166 5.42193 24 12.0386 24C18.6552 24 24.0386 18.6166 24.0386 12ZM1.2376 12C1.2376 6.04405 6.08262 1.19902 12.0386 1.19902C17.9945 1.19902 22.8396 6.04405 22.8396 12C22.8396 17.956 17.9945 22.801 12.0386 22.801C6.08262 22.801 1.2376 17.956 1.2376 12Z" fill="#131429"/>
<path d="M12.4641 17.6378L15.8361 14.2659C16.071 14.0309 16.071 13.6541 15.8361 13.4192C15.6012 13.1843 15.2243 13.1843 14.9894 13.4192L12.6403 15.7683V6.78787C12.6403 6.45508 12.3711 6.18591 12.0384 6.18591C11.7056 6.18591 11.4364 6.45508 11.4364 6.78787V15.7634L9.08729 13.4143C8.85238 13.1794 8.47555 13.1794 8.24064 13.4143C8.00573 13.6492 8.00573 14.026 8.24064 14.261L11.6126 17.6329C11.73 17.7504 11.8817 17.8091 12.0384 17.8091C12.195 17.8091 12.3467 17.7553 12.4641 17.6378Z" fill="#131429"/>
</g>
<defs>
<clipPath id="clip0">
<path d="M0.0385742 0H24.0386V24H0.0385742V0Z" fill="white"/>
</clipPath>
</defs>
</svg>
