<svg width="25" height="24" viewBox="0 0 25 24" fill="none" xmlns="http://www.w3.org/2000/svg">
<g clip-path="url(#clip0)">
<path d="M23.351 11.488C22.969 11.488 22.6634 11.7875 22.6634 12.1619V18.2914C22.6634 19.9586 21.278 21.3113 19.5819 21.3113H4.49528C2.79409 21.3113 1.41379 19.9536 1.41379 18.2914V12.062C1.41379 11.6877 1.10818 11.3882 0.72618 11.3882C0.344177 11.3882 0.0385742 11.6877 0.0385742 12.062V18.2914C0.0385742 20.7023 2.04027 22.659 4.49528 22.659H19.5819C22.042 22.659 24.0386 20.6974 24.0386 18.2914V12.1619C24.0386 11.7925 23.733 11.488 23.351 11.488Z" fill="#131429"/>
<path d="M11.5547 17.3081C11.6872 17.4379 11.8654 17.5078 12.0386 17.5078C12.2118 17.5078 12.39 17.4429 12.5225 17.3081L16.8926 13.0254C17.1625 12.7608 17.1625 12.3366 16.8926 12.072C16.6226 11.8075 16.1897 11.8075 15.9197 12.072L12.7262 15.2067V1.53494C12.7262 1.16057 12.4206 0.861084 12.0386 0.861084C11.6566 0.861084 11.351 1.16057 11.351 1.53494V15.2067L8.15235 12.072C7.8824 11.8075 7.44946 11.8075 7.17951 12.072C6.90956 12.3366 6.90956 12.7608 7.17951 13.0254L11.5547 17.3081Z" fill="#131429"/>
</g>
<defs>
<clipPath id="clip0">
<path d="M0.0385742 0H24.0386V23.52H0.0385742V0Z" fill="white"/>
</clipPath>
</defs>
</svg>
