<svg width="25" height="24" viewBox="0 0 25 24" fill="none" xmlns="http://www.w3.org/2000/svg">
<g clip-path="url(#clip0)">
<path d="M22.0773 12.6095V2.98192C22.0773 1.3397 20.7113 0 19.0369 0H6.88512C5.2107 0 3.84473 1.3397 3.84473 2.98192V12.6143C3.84473 14.2566 5.2107 15.5963 6.88512 15.5963H8.8533C9.18622 15.5963 9.4555 15.3322 9.4555 15.0056C9.4555 14.6791 9.18622 14.415 8.8533 14.415H6.88512C5.87165 14.415 5.04424 13.6035 5.04424 12.6095V2.98192C5.04424 1.98795 5.87165 1.17644 6.88512 1.17644H19.0369C20.0504 1.17644 20.8778 1.98795 20.8778 2.98192V12.6143C20.8778 13.6083 20.0504 14.4198 19.0369 14.4198H17.0687C16.7358 14.4198 16.4665 14.6839 16.4665 15.0105C16.4665 15.337 16.7358 15.6011 17.0687 15.6011H19.0369C20.7162 15.5963 22.0773 14.2566 22.0773 12.6095Z" fill="#131429"/>
<path d="M12.9609 9.90613C12.628 9.90613 12.3587 10.1702 12.3587 10.4968V21.5313L9.27423 18.5062C9.03923 18.2757 8.66224 18.2757 8.42723 18.5062C8.19223 18.7366 8.19223 19.1064 8.42723 19.3369L12.5349 23.3656C12.6476 23.476 12.7993 23.5385 12.9609 23.5385C13.1176 23.5385 13.2742 23.476 13.3868 23.3656L17.4946 19.3369C17.7296 19.1064 17.7296 18.7366 17.4946 18.5062C17.2595 18.2757 16.8826 18.2757 16.6476 18.5062L13.5631 21.5313V10.4968C13.5582 10.1702 13.2938 9.90613 12.9609 9.90613Z" fill="#131429"/>
</g>
<defs>
<clipPath id="clip0">
<path d="M0.960938 0H24.9609V23.5385H0.960938V0Z" fill="white"/>
</clipPath>
</defs>
</svg>
