<svg width="24" height="24" viewBox="0 0 24 24" fill="none" xmlns="http://www.w3.org/2000/svg">
<path fill-rule="evenodd" clip-rule="evenodd" d="M19.7908 19.222L3.20923 5.99135L4.14478 4.81885L20.7264 18.0495L19.7908 19.222Z" fill="#131429"/>
<path d="M18.7892 14.8728C20.1782 13.735 20.9572 12.6151 21.0585 12.4695C21.0611 12.4656 21.0633 12.4625 21.0651 12.46C21.2451 12.18 21.2451 11.82 21.0651 11.56C21.0633 11.5575 21.0611 11.5544 21.0585 11.5505C20.8448 11.2433 17.615 6.59999 12.0051 6.59999C10.9117 6.59999 9.90874 6.77636 9.00091 7.06264L10.5807 8.32321C11.0343 8.24405 11.5094 8.19999 12.0051 8.19999C15.8651 8.19999 18.5051 10.92 19.4051 12C19.0407 12.4453 18.3913 13.1527 17.4912 13.8371L18.7892 14.8728Z" fill="#131429"/>
<path d="M17.5257 15.7836L16.1669 14.6994C15.0179 15.3285 13.618 15.8 12.0051 15.8C8.14506 15.8 5.50506 13.08 4.60506 12C5.23012 11.236 6.68481 9.70031 8.81504 8.83332L7.41033 7.71248C4.65147 9.10676 3.09765 11.3406 2.95165 11.5505C2.94898 11.5544 2.94679 11.5575 2.94506 11.56C2.76506 11.82 2.76506 12.18 2.94506 12.46C2.97195 12.4875 3.02278 12.551 3.09698 12.6436C3.85227 13.5864 7.02817 17.5508 12.0051 17.42C14.2345 17.42 16.088 16.6867 17.5257 15.7836Z" fill="#131429"/>
<path d="M9.74614 9.57625C8.51315 10.7164 8.31348 12.6308 9.34506 14C9.88506 14.72 10.6451 15.16 11.5251 15.3C11.6851 15.32 11.8451 15.34 11.9851 15.34C12.7051 15.34 13.3851 15.1 13.9651 14.68C14.3427 14.3955 14.6427 14.0454 14.861 13.6574L13.9137 12.9016C13.7719 13.2082 13.5545 13.4844 13.2651 13.7C12.8251 14.04 12.2651 14.18 11.7051 14.1C11.1451 14.02 10.6451 13.72 10.3051 13.28C9.61416 12.3522 9.78052 11.0543 10.6888 10.3284L9.74614 9.57625Z" fill="#131429"/>
<path d="M13.8014 10.893C13.7658 10.834 13.727 10.7763 13.6851 10.72C13.4262 10.385 13.0746 10.1312 12.6744 9.99379L11.1704 8.79371C11.5868 8.68519 12.0234 8.65978 12.4651 8.72001C13.3451 8.84001 14.1251 9.29998 14.6251 10.04C15.0849 10.6504 15.3001 11.3691 15.2881 12.0793L13.8014 10.893Z" fill="#131429"/>
<path d="M11.8331 11.2415C11.8277 11.2801 11.8251 11.3197 11.8251 11.36C11.8251 11.56 11.9051 11.76 12.0651 11.92C12.2051 12.08 12.4051 12.16 12.6251 12.16C12.7189 12.16 12.8171 12.138 12.9093 12.1002L11.8331 11.2415Z" fill="#131429"/>
</svg>
