<svg width="25" height="24" viewBox="0 0 25 24" fill="none" xmlns="http://www.w3.org/2000/svg">
<g clip-path="url(#clip0)">
<path d="M11.8162 6.39184C12.0222 6.39184 12.2152 6.33655 12.3813 6.24C12.7169 6.04498 12.9424 5.68162 12.9424 5.26559C12.9424 3.36 13.4961 2.25251 14.9955 2.25251H18.1759C18.7979 2.25251 19.3022 1.74824 19.3022 1.12625C19.3022 0.504261 18.7979 0 18.1759 0H14.9955C12.2961 0 10.6899 1.92 10.6899 5.26559C10.6899 5.88743 11.1942 6.39184 11.8162 6.39184Z" fill="#131429"/>
<path d="M17.9344 8.95398H6.41629C5.7943 8.95398 5.29004 9.45824 5.29004 10.0802C5.29004 10.7022 5.7943 11.2065 6.41629 11.2065H10.69V22.8737C10.69 23.4957 11.1943 24 11.8163 24C12.4383 24 12.9426 23.4957 12.9426 22.8737V11.2065H17.9346C18.5565 11.2065 19.0608 10.7022 19.0608 10.0802C19.0608 9.45824 18.5564 8.95398 17.9344 8.95398Z" fill="#131429"/>
</g>
<defs>
<clipPath id="clip0">
<path d="M0.295898 0H24.2959V24H0.295898V0Z" fill="white"/>
</clipPath>
</defs>
</svg>
