<svg width="24" height="24" viewBox="0 0 24 24" fill="none" xmlns="http://www.w3.org/2000/svg">
<path d="M20.1446 4.78457H14.4589C13.0773 4.78457 11.9501 3.68438 11.9501 2.32503C11.9501 1.9583 11.6509 1.66492 11.2768 1.66492H3.85536C1.73067 1.66492 0 3.36166 0 5.44468V18.0847C0 20.1677 1.73067 21.8644 3.85536 21.8644H20.1446C22.2693 21.8644 24 20.1677 24 18.0847V8.55944C24 6.47642 22.2693 4.78457 20.1446 4.78457ZM22.6534 18.0798C22.6534 19.4342 21.5312 20.5393 20.1446 20.5393H3.85536C2.47382 20.5393 1.34663 19.4391 1.34663 18.0798V5.44468C1.34663 4.09023 2.46883 2.98515 3.85536 2.98515H10.6633C10.9825 4.75523 12.5636 6.1048 14.4589 6.1048H20.1446C21.5262 6.1048 22.6534 7.20499 22.6534 8.56433V18.0798Z" fill="#131429"/>
</svg>
