<svg width="24" height="24" viewBox="0 0 24 24" fill="none" xmlns="http://www.w3.org/2000/svg">
<path fill-rule="evenodd" clip-rule="evenodd" d="M23.0592 12.2618C23.0592 11.4449 22.9859 10.6594 22.8497 9.9054H12V14.3615H18.1999C17.9328 15.8015 17.1212 17.0216 15.9011 17.8385V20.729H19.6241C21.8025 18.7234 23.0592 15.7701 23.0592 12.2618Z" fill="#4285F4"/>
<path fill-rule="evenodd" clip-rule="evenodd" d="M11.9998 23.52C15.1102 23.52 17.7179 22.4885 19.6239 20.7291L15.9009 17.8386C14.8693 18.5298 13.5497 18.9382 11.9998 18.9382C8.99933 18.9382 6.4597 16.9118 5.55381 14.1888H1.70508V17.1736C3.60064 20.9385 7.4965 23.52 11.9998 23.52Z" fill="#34A853"/>
<path fill-rule="evenodd" clip-rule="evenodd" d="M5.55402 14.1887C5.32362 13.4975 5.19271 12.7592 5.19271 11.9999C5.19271 11.2407 5.32362 10.5023 5.55402 9.81114V6.82642H1.70529C0.925071 8.38162 0.47998 10.141 0.47998 11.9999C0.47998 13.8589 0.925071 15.6183 1.70529 17.1735L5.55402 14.1887Z" fill="#FBBC05"/>
<path fill-rule="evenodd" clip-rule="evenodd" d="M11.9998 5.0618C13.6911 5.0618 15.2097 5.64304 16.4035 6.78456L19.7077 3.48042C17.7126 1.62151 15.1049 0.47998 11.9998 0.47998C7.4965 0.47998 3.60064 3.06151 1.70508 6.82645L5.5538 9.81118C6.4597 7.08827 8.99933 5.0618 11.9998 5.0618Z" fill="#EA4335"/>
</svg>
