<svg width="24" height="24" viewBox="0 0 24 24" fill="none" xmlns="http://www.w3.org/2000/svg">
<path d="M0 4.51197C0 4.14083 0.300865 3.83997 0.672 3.83997H23.328C23.6991 3.83997 24 4.14083 24 4.51197C24 4.8831 23.6991 5.18397 23.328 5.18397H0.672C0.300865 5.18397 0 4.8831 0 4.51197Z" fill="#131429"/>
<path d="M0 12.192C0 11.8208 0.300865 11.52 0.672 11.52H23.328C23.6991 11.52 24 11.8208 24 12.192C24 12.5631 23.6991 12.864 23.328 12.864H0.672C0.300865 12.864 0 12.5631 0 12.192Z" fill="#131429"/>
<path d="M0.672 19.2C0.300865 19.2 0 19.5008 0 19.872C0 20.2431 0.300865 20.544 0.672 20.544H23.328C23.6991 20.544 24 20.2431 24 19.872C24 19.5008 23.6991 19.2 23.328 19.2H0.672Z" fill="#131429"/>
</svg>
