<svg width="24" height="24" viewBox="0 0 24 24" fill="none" xmlns="http://www.w3.org/2000/svg">
<path d="M10.8891 21.7769C11.1876 22.0697 11.5889 22.2329 12.0098 22.2329C12.4258 22.2329 12.8369 22.0649 13.1305 21.7769L21.925 13.1516C23.261 11.8412 23.9951 10.0989 24 8.25092C24 6.39818 23.2659 4.65584 21.9299 3.34548C20.5938 2.03512 18.8222 1.31514 16.9331 1.31514C15.0783 1.31514 13.3312 2.01112 12.0049 3.27828C10.6737 2.00632 8.9217 1.30554 7.06199 1.30554C5.17781 1.30554 3.4062 2.02552 2.07015 3.33108C0.734095 4.64144 0 6.38378 0 8.23652C0 10.0845 0.738989 11.8268 2.07504 13.1372L10.8891 21.7769ZM2.9217 4.16625C4.02773 3.08149 5.50082 2.4815 7.06688 2.4815C8.63295 2.4815 10.1109 3.08149 11.2219 4.17105L11.584 4.52624C11.6966 4.63664 11.8483 4.69903 12.0098 4.69903C12.1664 4.69903 12.323 4.63664 12.4356 4.52624L12.7879 4.18065C13.8989 3.09109 15.3719 2.4911 16.9429 2.4911C18.509 2.4911 19.9821 3.09109 21.0881 4.17585C22.199 5.26542 22.8059 6.71017 22.8059 8.24612C22.8059 9.78208 22.1941 11.2268 21.0832 12.3164L12.2839 20.9465C12.1419 21.0857 11.8825 21.0857 11.7357 20.9465L2.92659 12.3068C1.81566 11.2172 1.20392 9.77248 1.20392 8.23652C1.20392 6.70057 1.81566 5.25582 2.9217 4.16625Z" fill="#131429"/>
</svg>
