<svg width="25" height="24" viewBox="0 0 25 24" fill="none" xmlns="http://www.w3.org/2000/svg">
<g clip-path="url(#clip0)">
<path d="M23.817 10.8823L12.5228 0.782671C12.5031 0.762926 12.4833 0.748117 12.4586 0.733308C12.2118 0.496366 11.8169 0.486494 11.5553 0.718499L0.261081 10.8181C-0.0153505 11.0649 -0.0350956 11.4845 0.206782 11.761C0.340062 11.909 0.522704 11.9831 0.705347 11.9831C0.863308 11.9831 1.02127 11.9288 1.14961 11.8153L3.18336 9.99377V10.3492V15.6211V21.7717C3.18336 22.6948 3.93367 23.4501 4.86169 23.4501C4.8765 23.4501 4.88638 23.4501 4.90119 23.4501C4.91599 23.4501 4.92587 23.4501 4.94068 23.4501H8.42569C9.29447 23.4501 10.0004 22.7442 10.0004 21.8754V15.8877C10.0004 15.7544 10.109 15.6458 10.2422 15.6458H13.8408C13.9741 15.6458 14.0827 15.7544 14.0827 15.8877V21.8754C14.0827 22.7442 14.7886 23.4501 15.6573 23.4501H19.2213C20.1592 23.4501 20.8997 22.527 20.8997 21.3472V15.8581V14.1797V10.0579L22.9334 11.8794C23.0618 11.993 23.2197 12.0473 23.3777 12.0473C23.5603 12.0473 23.743 11.9732 23.8762 11.8251C24.1132 11.5487 24.0885 11.1291 23.817 10.8823ZM19.5619 14.1748V15.8531V21.3373C19.5619 21.8162 19.325 22.1074 19.2164 22.1074H15.6524C15.5191 22.1074 15.4105 21.9988 15.4105 21.8655V15.8877C15.4105 15.0189 14.7046 14.313 13.8359 14.313H10.2373C9.36852 14.313 8.66263 15.0189 8.66263 15.8877V21.8754C8.66263 22.0087 8.55403 22.1173 8.42075 22.1173H4.93574C4.92093 22.1173 4.91106 22.1173 4.89625 22.1173C4.88144 22.1173 4.87157 22.1173 4.85676 22.1173C4.66918 22.1173 4.51122 21.9643 4.51122 21.7717V15.6162V10.3442V8.79919L12.0045 2.10559L19.5619 8.86336V14.1748Z" fill="#131429"/>
</g>
<defs>
<clipPath id="clip0">
<path d="M0.0385742 0H24.0386V24H0.0385742V0Z" fill="white"/>
</clipPath>
</defs>
</svg>
