<svg width="24" height="25" viewBox="0 0 24 25" fill="none" xmlns="http://www.w3.org/2000/svg">
<g clip-path="url(#clip0)">
<path d="M17.3766 0H6.62295C2.97106 0 0 3.02333 0 6.73929V17.6816C0 21.3977 2.97106 24.4209 6.62295 24.4209H17.3766C21.0288 24.4209 23.9999 21.3976 23.9999 17.6816V6.73929C24 3.02333 21.0288 0 17.3766 0ZM21.8706 17.6816C21.8706 20.203 19.8547 22.2542 17.3768 22.2542H6.62295C4.1452 22.2543 2.12938 20.203 2.12938 17.6816V6.73929C2.12938 4.21807 4.1452 2.16674 6.62295 2.16674H17.3766C19.8545 2.16674 21.8705 4.21807 21.8705 6.73929V17.6816H21.8706Z" fill="#131429"/>
<path d="M12.0001 5.91809C8.59008 5.91809 5.81592 8.74092 5.81592 12.2107C5.81592 15.6804 8.59008 18.5031 12.0001 18.5031C15.4101 18.5031 18.1842 15.6804 18.1842 12.2107C18.1842 8.74092 15.4101 5.91809 12.0001 5.91809ZM12.0001 16.3362C9.76436 16.3362 7.9453 14.4855 7.9453 12.2106C7.9453 9.93552 9.76422 8.08469 12.0001 8.08469C14.2359 8.08469 16.0548 9.93552 16.0548 12.2106C16.0548 14.4855 14.2358 16.3362 12.0001 16.3362Z" fill="#131429"/>
<path d="M18.4434 4.08081C18.0331 4.08081 17.6301 4.24982 17.3404 4.54594C17.0492 4.84061 16.8818 5.25085 16.8818 5.66975C16.8818 6.08736 17.0493 6.49745 17.3404 6.79357C17.63 7.08825 18.0331 7.2587 18.4434 7.2587C18.8551 7.2587 19.2568 7.08825 19.5478 6.79357C19.8388 6.49745 20.0049 6.08721 20.0049 5.66975C20.0049 5.25085 19.8388 4.84061 19.5478 4.54594C19.2582 4.24982 18.8551 4.08081 18.4434 4.08081Z" fill="#131429"/>
</g>
<defs>
<clipPath id="clip0">
<path d="M0 0H24V24.4211H0V0Z" fill="white"/>
</clipPath>
</defs>
</svg>
