<svg width="24" height="24" viewBox="0 0 24 24" fill="none" xmlns="http://www.w3.org/2000/svg">
<g clip-path="url(#clip0)">
<path d="M12 23.5385C18.6166 23.5385 24 18.2586 24 11.7692C24 5.27983 18.6166 0 12 0C5.38336 0 0 5.27983 0 11.7692C0 18.2586 5.38336 23.5385 12 23.5385ZM12 1.17596C17.956 1.17596 22.801 5.92781 22.801 11.7692C22.801 17.6106 17.956 22.3625 12 22.3625C6.04405 22.3625 1.19902 17.6106 1.19902 11.7692C1.19902 5.92781 6.04405 1.17596 12 1.17596Z" fill="#131429"/>
<path d="M9.73415 15.4939C9.8516 15.6091 10.0033 15.6667 10.1599 15.6667C10.3165 15.6667 10.4682 15.6091 10.5857 15.4939C10.8206 15.2635 10.8206 14.8939 10.5857 14.6635L8.23659 12.3596H17.2121C17.5449 12.3596 17.8141 12.0956 17.8141 11.7692C17.8141 11.4428 17.5449 11.1788 17.2121 11.1788H8.23659L10.5857 8.87487C10.8206 8.64448 10.8206 8.27489 10.5857 8.0445C10.3508 7.81411 9.97395 7.81411 9.73904 8.0445L6.3671 11.3516C6.13219 11.582 6.13219 11.9516 6.3671 12.182L9.73415 15.4939Z" fill="#131429"/>
</g>
<defs>
<clipPath id="clip0">
<path d="M0 0H24V23.5385H0V0Z" fill="white"/>
</clipPath>
</defs>
</svg>
