<svg width="25" height="24" viewBox="0 0 25 24" fill="none" xmlns="http://www.w3.org/2000/svg">
<g clip-path="url(#clip0)">
<path d="M23.0478 16.3162C23.5397 15.6888 23.7756 15.0163 23.7454 14.3237C23.7153 13.5609 23.3741 12.9636 23.093 12.5972C23.4192 11.7842 23.5447 10.5044 22.4556 9.51067C21.6576 8.78294 20.3025 8.45671 18.4255 8.54705C17.1055 8.60728 16.0014 8.8532 15.9562 8.86324H15.9512C15.7003 8.90841 15.4343 8.96361 15.1633 9.02384C15.1432 8.70264 15.1984 7.90464 15.7906 6.1079C16.4933 3.96989 16.4531 2.33375 15.6601 1.23965C14.827 0.0903388 13.497 0 13.1055 0C12.7291 0 12.3828 0.155583 12.1369 0.441656C11.5798 1.08908 11.6451 2.28356 11.7153 2.83563C11.0528 4.6123 9.19589 8.96863 7.625 10.1782C7.59488 10.1982 7.56979 10.2233 7.54469 10.2484C7.08296 10.7353 6.7718 11.2622 6.56101 11.724C6.26489 11.5634 5.92863 11.473 5.56728 11.473H2.5058C1.35147 11.473 0.417969 12.4115 0.417969 13.5609V21.7164C0.417969 22.8708 1.35649 23.8043 2.5058 23.8043H5.56728C6.01395 23.8043 6.43052 23.6637 6.7718 23.4228L7.95122 23.5634C8.1319 23.5885 11.3439 23.995 14.6413 23.9297C15.2385 23.9749 15.8007 24 16.3226 24C17.221 24 18.0039 23.9297 18.6564 23.7892C20.1921 23.463 21.2411 22.8105 21.7731 21.8519C22.1796 21.1192 22.1796 20.3915 22.1143 19.9297C23.1131 19.0263 23.2887 18.0276 23.2536 17.325C23.2335 16.9184 23.1432 16.5721 23.0478 16.3162ZM2.5058 22.4492C2.09927 22.4492 1.77305 22.1179 1.77305 21.7164V13.5558C1.77305 13.1493 2.10429 12.8231 2.5058 12.8231H5.56728C5.9738 12.8231 6.30003 13.1543 6.30003 13.5558V21.7114C6.30003 22.1179 5.96878 22.4442 5.56728 22.4442H2.5058V22.4492V22.4492ZM21.763 15.729C21.5522 15.9498 21.5121 16.2861 21.6727 16.5471C21.6727 16.5521 21.8784 16.9034 21.9035 17.3852C21.9387 18.0427 21.6225 18.6248 20.96 19.1217C20.7241 19.3024 20.6288 19.6136 20.7291 19.8946C20.7291 19.8996 20.9449 20.5621 20.5936 21.1895C20.2574 21.7917 19.5096 22.2233 18.3753 22.4642C17.4669 22.66 16.2323 22.6951 14.7166 22.5747C14.6965 22.5747 14.6714 22.5747 14.6463 22.5747C11.4192 22.6449 8.15699 22.2233 8.12186 22.2183H8.11684L7.60994 22.1581C7.64005 22.0176 7.65511 21.867 7.65511 21.7164V13.5558C7.65511 13.34 7.61998 13.1292 7.55975 12.9335C7.65009 12.5972 7.90103 11.8494 8.49325 11.212C10.7467 9.42534 12.95 3.39774 13.0453 3.13676C13.0855 3.03137 13.0955 2.91593 13.0754 2.8005C12.9901 2.23839 13.0202 1.55082 13.1407 1.34504C13.4067 1.35006 14.1244 1.42535 14.556 2.02258C15.0679 2.73024 15.0478 3.99498 14.4958 5.67127C13.6526 8.22585 13.5823 9.57089 14.2498 10.1631C14.5811 10.4592 15.0227 10.4743 15.3439 10.3588C15.6501 10.2886 15.9412 10.2284 16.2172 10.1832C16.2373 10.1782 16.2624 10.1731 16.2825 10.1681C17.8232 9.83187 20.5836 9.6261 21.5422 10.4994C22.3552 11.2422 21.7781 12.2258 21.7128 12.3312C21.5271 12.6123 21.5823 12.9787 21.8333 13.2045C21.8383 13.2095 22.3653 13.7064 22.3904 14.3739C22.4104 14.8206 22.1997 15.2773 21.763 15.729Z" fill="#131429"/>
</g>
<defs>
<clipPath id="clip0">
<path d="M0.0830078 0H24.083V24H0.0830078V0Z" fill="white"/>
</clipPath>
</defs>
</svg>
