<svg width="25" height="25" viewBox="0 0 25 25" fill="none" xmlns="http://www.w3.org/2000/svg">
<g clip-path="url(#clip0)">
<path d="M2.57608 5.75806C1.92301 5.75806 1.39355 6.2979 1.39355 6.96377V23.2649C1.39355 23.9308 1.92301 24.4706 2.57608 24.4706C3.22916 24.4706 3.75861 23.9308 3.75861 23.2649V6.96377C3.75861 6.29774 3.22916 5.75806 2.57608 5.75806Z" fill="#131429"/>
<path d="M12.2015 8.67396C13.3668 7.66582 14.8732 7.05589 16.5176 7.05589C20.2015 7.05589 23.1984 10.1117 23.1984 13.8679V23.2649C23.1984 23.9308 22.6691 24.4706 22.0159 24.4706C21.3628 24.4706 20.8333 23.9308 20.8333 23.2649V13.8679C20.8333 11.4413 18.8973 9.46732 16.5176 9.46732C14.1377 9.46732 12.2015 11.4413 12.2015 13.8679L12.2015 23.2649C12.2015 23.9308 11.672 24.4706 11.019 24.4706C10.3659 24.4706 9.83643 23.9308 9.83643 23.2649V6.96377C9.83643 6.2979 10.3659 5.75806 11.019 5.75806C11.672 5.75806 12.2015 6.2979 12.2015 6.96377V8.67396Z" fill="#131429"/>
<path d="M2.5756 2.41143C2.88621 2.41143 3.19209 2.28282 3.41283 2.05936C3.63199 1.8343 3.75813 1.52403 3.75813 1.20732C3.75813 0.889015 3.63199 0.578744 3.41283 0.353677C3.19209 0.130217 2.88621 0 2.5756 0C2.26499 0 1.96068 0.130217 1.73994 0.353677C1.5192 0.578744 1.39307 0.889015 1.39307 1.20732C1.39307 1.52403 1.5192 1.8343 1.73994 2.05936C1.96068 2.28282 2.26499 2.41143 2.5756 2.41143Z" fill="#131429"/>
</g>
<defs>
<clipPath id="clip0">
<path d="M0.295898 0H24.2959V24.4706H0.295898V0Z" fill="white"/>
</clipPath>
</defs>
</svg>
