<svg width="24" height="24" viewBox="0 0 24 24" fill="none" xmlns="http://www.w3.org/2000/svg">
<g clip-path="url(#clip0)">
<path d="M12.686 10.4044C12.4225 10.6678 12.4225 11.0904 12.686 11.3538C13.7746 12.4425 13.7746 14.2122 12.686 15.3008L6.96935 21.0175C5.8807 22.1061 4.11102 22.1061 3.02237 21.0175L2.16239 20.1575C1.07374 19.0688 1.07374 17.2992 2.16239 16.2105L7.87904 10.4939C8.1425 10.2304 8.1425 9.80786 7.87904 9.5444C7.61558 9.28094 7.19304 9.28094 6.92958 9.5444L1.21292 15.2611C0.432477 16.0415 0 17.0804 0 18.184C0 19.2876 0.427506 20.3265 1.21292 21.107L2.07291 21.9669C2.87821 22.7722 3.93703 23.1749 4.99586 23.1749C6.05468 23.1749 7.1135 22.7722 7.91881 21.9669L13.6355 16.2503C15.2461 14.6397 15.2461 12.015 13.6355 10.4044C13.377 10.1409 12.9495 10.1409 12.686 10.4044Z" fill="#131429"/>
<path d="M22.7921 2.89313L21.9321 2.03315C20.3215 0.422544 17.6968 0.422544 16.0862 2.03315L10.3696 7.7498C8.75897 9.36041 8.75897 11.9851 10.3696 13.5957C10.633 13.8592 11.0556 13.8592 11.319 13.5957C11.5825 13.3322 11.5825 12.9097 11.319 12.6462C10.2304 11.5576 10.2304 9.78791 11.319 8.69926L17.0357 2.98261C18.1243 1.89396 19.894 1.89396 20.9827 2.98261L21.8426 3.84259C22.9313 4.93124 22.9313 6.70092 21.8426 7.78957L16.126 13.5062C15.8625 13.7697 15.8625 14.1922 16.126 14.4557C16.2552 14.5849 16.4292 14.6545 16.5982 14.6545C16.7673 14.6545 16.9412 14.5899 17.0705 14.4557L22.7871 8.73903C23.5676 7.95858 24.0001 6.91964 24.0001 5.81608C24.0001 4.71252 23.5726 3.67358 22.7921 2.89313Z" fill="#131429"/>
</g>
<defs>
<clipPath id="clip0">
<path d="M0 0H24V24H0V0Z" fill="white"/>
</clipPath>
</defs>
</svg>
