<svg width="24" height="25" viewBox="0 0 24 25" fill="none" xmlns="http://www.w3.org/2000/svg">
<g clip-path="url(#clip0)">
<path d="M11.5934 23.0865H5.33366C3.63247 23.0865 2.25217 21.6728 2.25217 19.9421V4.54766C2.25217 2.81175 3.63756 1.40328 5.33366 1.40328H11.6953C12.0773 1.40328 12.3829 1.09144 12.3829 0.701639C12.3829 0.311839 12.0773 0 11.6953 0H5.33366C2.87356 0 0.876953 2.04255 0.876953 4.54766V19.9421C0.876953 22.4524 2.87865 24.4898 5.33366 24.4898H11.5934C11.9754 24.4898 12.281 24.178 12.281 23.7882C12.281 23.3984 11.9703 23.0865 11.5934 23.0865Z" fill="#131429"/>
<path d="M22.9214 11.7511L18.5512 7.2918C18.2813 7.01634 17.8483 7.01634 17.5784 7.2918C17.3084 7.56726 17.3084 8.00903 17.5784 8.28449L20.777 11.5484H6.82628C6.44427 11.5484 6.13867 11.8602 6.13867 12.25C6.13867 12.6398 6.44427 12.9517 6.82628 12.9517H20.777L17.5784 16.2156C17.3084 16.4911 17.3084 16.9328 17.5784 17.2083C17.7108 17.3434 17.8891 17.4162 18.0623 17.4162C18.2354 17.4162 18.4137 17.3486 18.5461 17.2083L22.9163 12.749C23.1913 12.4683 23.1913 12.0214 22.9214 11.7511Z" fill="#131429"/>
</g>
<defs>
<clipPath id="clip0">
<path d="M0 0H24V24.4898H0V0Z" fill="white"/>
</clipPath>
</defs>
</svg>
