<svg width="25" height="24" viewBox="0 0 25 24" fill="none" xmlns="http://www.w3.org/2000/svg">
<g clip-path="url(#clip0)">
<path d="M0.0385742 5.81139V17.727C0.0385742 19.3689 1.40427 20.7084 3.07835 20.7084H12.8976C14.5717 20.7084 15.9374 19.3689 15.9374 17.727V15.7971C15.9374 15.4707 15.6682 15.2066 15.3353 15.2066C15.0025 15.2066 14.7333 15.4707 14.7333 15.7971V17.727C14.7333 18.7208 13.906 19.5322 12.8927 19.5322H3.07835C2.06509 19.5322 1.23784 18.7208 1.23784 17.727V5.81139C1.23784 4.81762 2.06509 4.00628 3.07835 4.00628H12.8976C13.9109 4.00628 14.7381 4.81762 14.7381 5.81139V7.74133C14.7381 8.06778 15.0074 8.33183 15.3402 8.33183C15.6731 8.33183 15.9423 8.06778 15.9423 7.74133V5.81139C15.9423 4.16951 14.5766 2.83008 12.9025 2.83008H3.07835C1.40427 2.83008 0.0385742 4.16471 0.0385742 5.81139Z" fill="#131429"/>
<path d="M18.9041 16.21C19.0216 16.3253 19.1733 16.3829 19.3299 16.3829C19.4866 16.3829 19.6383 16.3253 19.7558 16.21L23.8627 12.1822C24.0976 11.9517 24.0976 11.582 23.8627 11.3516L19.7558 7.32371C19.5209 7.09327 19.1439 7.09327 18.909 7.32371C18.674 7.55415 18.674 7.92381 18.909 8.15425L21.9928 11.1788H10.7393C10.4064 11.1788 10.1372 11.4428 10.1372 11.7693C10.1372 12.0957 10.4064 12.3598 10.7393 12.3598H21.9879L18.9041 15.3843C18.6691 15.6099 18.6691 15.9844 18.9041 16.21Z" fill="#131429"/>
</g>
<defs>
<clipPath id="clip0">
<path d="M0.0385742 0H24.0386V23.5385H0.0385742V0Z" fill="white"/>
</clipPath>
</defs>
</svg>
