<svg width="25" height="24" viewBox="0 0 25 24" fill="none" xmlns="http://www.w3.org/2000/svg">
<g clip-path="url(#clip0)">
<path d="M21.1532 2.8678H3.01783C1.39896 2.8678 0.0830078 4.18375 0.0830078 5.80262V18.1974C0.0830078 19.8163 1.39896 21.1322 3.01783 21.1322H21.1482C22.7671 21.1322 24.083 19.8163 24.083 18.1974V5.80759C24.088 4.18872 22.772 2.8678 21.1532 2.8678ZM22.7472 18.1974C22.7472 19.0764 22.0321 19.7914 21.1532 19.7914H3.01783C2.13887 19.7914 1.42379 19.0764 1.42379 18.1974V5.80759C1.42379 4.92863 2.13887 4.21355 3.01783 4.21355H21.1482C22.0271 4.21355 22.7422 4.92863 22.7422 5.80759V18.1974H22.7472Z" fill="#131429"/>
<path d="M15.2189 11.8461L21.0886 6.58227C21.3617 6.33397 21.3865 5.91188 21.1382 5.63379C20.8899 5.36067 20.4678 5.33584 20.1897 5.58413L12.0954 12.8492L10.5162 11.4389C10.5113 11.4339 10.5063 11.4289 10.5063 11.424C10.4716 11.3892 10.4368 11.3594 10.3971 11.3296L3.97125 5.57916C3.69316 5.33087 3.27106 5.3557 3.02277 5.63379C2.77447 5.91188 2.7993 6.33397 3.07739 6.58227L9.01656 11.8908L3.10222 17.4277C2.83406 17.681 2.81917 18.1031 3.07243 18.3762C3.2065 18.5152 3.38527 18.5897 3.56405 18.5897C3.72792 18.5897 3.89179 18.5301 4.0209 18.4109L10.0246 12.7946L11.6534 14.2496C11.7825 14.3638 11.9414 14.4184 12.1004 14.4184C12.2593 14.4184 12.4231 14.3588 12.5473 14.2446L14.2208 12.7449L20.1897 18.4159C20.3189 18.5401 20.4877 18.5996 20.6516 18.5996C20.8303 18.5996 21.0041 18.5301 21.1382 18.3911C21.3915 18.1229 21.3815 17.6959 21.1134 17.4426L15.2189 11.8461Z" fill="#131429"/>
</g>
<defs>
<clipPath id="clip0">
<path d="M0.0830078 0H24.083V24H0.0830078V0Z" fill="white"/>
</clipPath>
</defs>
</svg>
