<svg width="25" height="24" viewBox="0 0 25 24" fill="none" xmlns="http://www.w3.org/2000/svg">
<g clip-path="url(#clip0)">
<path d="M12.961 0.392822C11.3554 0.392822 10.0444 1.69888 10.0444 3.30935C10.0444 4.91983 11.3505 6.22588 12.961 6.22588C14.5714 6.22588 15.8775 4.91983 15.8775 3.30935C15.8775 1.69888 14.5665 0.392822 12.961 0.392822ZM12.961 5.02294C12.0182 5.02294 11.2474 4.25207 11.2474 3.30935C11.2474 2.36664 12.0133 1.59577 12.961 1.59577C13.9086 1.59577 14.6745 2.36664 14.6745 3.30935C14.6745 4.25207 13.9037 5.02294 12.961 5.02294Z" fill="#131429"/>
<path d="M22.0445 0.392822C20.4389 0.392822 19.1279 1.69888 19.1279 3.30935C19.1279 4.91983 20.434 6.22588 22.0445 6.22588C23.6549 6.22588 24.961 4.91983 24.961 3.30935C24.961 1.69888 23.65 0.392822 22.0445 0.392822ZM22.0445 5.02294C21.1017 5.02294 20.3309 4.25207 20.3309 3.30935C20.3309 2.36664 21.0968 1.59577 22.0445 1.59577C22.9872 1.59577 23.758 2.36664 23.758 3.30935C23.758 4.25207 22.9872 5.02294 22.0445 5.02294Z" fill="#131429"/>
<path d="M3.87747 0.392822C2.2719 0.392822 0.960938 1.69888 0.960938 3.30935C0.960938 4.91983 2.26699 6.22588 3.87747 6.22588C5.48794 6.22588 6.794 4.91983 6.794 3.30935C6.794 1.69888 5.48794 0.392822 3.87747 0.392822ZM3.87747 5.02294C2.93475 5.02294 2.16388 4.25207 2.16388 3.30935C2.16388 2.36664 2.93475 1.59577 3.87747 1.59577C4.82018 1.59577 5.59105 2.36664 5.59105 3.30935C5.59105 4.25207 4.82509 5.02294 3.87747 5.02294Z" fill="#131429"/>
<path d="M12.961 9.0835C11.3554 9.0835 10.0444 10.3896 10.0444 12C10.0444 13.6105 11.3505 14.9166 12.961 14.9166C14.5714 14.9166 15.8775 13.6105 15.8775 12C15.8775 10.3896 14.5665 9.0835 12.961 9.0835ZM12.961 13.7136C12.0182 13.7136 11.2474 12.9427 11.2474 12C11.2474 11.0573 12.0133 10.2864 12.961 10.2864C13.9086 10.2864 14.6745 11.0573 14.6745 12C14.6745 12.9427 13.9037 13.7136 12.961 13.7136Z" fill="#131429"/>
<path d="M22.0445 9.0835C20.4389 9.0835 19.1279 10.3896 19.1279 12C19.1279 13.6105 20.434 14.9166 22.0445 14.9166C23.6549 14.9166 24.961 13.6105 24.961 12C24.961 10.3896 23.65 9.0835 22.0445 9.0835ZM22.0445 13.7136C21.1017 13.7136 20.3309 12.9427 20.3309 12C20.3309 11.0573 21.0968 10.2864 22.0445 10.2864C22.9872 10.2864 23.758 11.0573 23.758 12C23.758 12.9427 22.9872 13.7136 22.0445 13.7136Z" fill="#131429"/>
<path d="M3.87747 9.0835C2.2719 9.0835 0.960938 10.3896 0.960938 12C0.960938 13.6105 2.26699 14.9166 3.87747 14.9166C5.48794 14.9166 6.794 13.6105 6.794 12C6.794 10.3896 5.48794 9.0835 3.87747 9.0835ZM3.87747 13.7136C2.93475 13.7136 2.16388 12.9427 2.16388 12C2.16388 11.0573 2.92984 10.2864 3.87747 10.2864C4.82509 10.2864 5.59105 11.0573 5.59105 12C5.59105 12.9427 4.82509 13.7136 3.87747 13.7136Z" fill="#131429"/>
<path d="M12.961 17.7742C11.3554 17.7742 10.0444 19.0802 10.0444 20.6907C10.0444 22.2963 11.3505 23.6072 12.961 23.6072C14.5714 23.6072 15.8775 22.3012 15.8775 20.6907C15.8775 19.0851 14.5665 17.7742 12.961 17.7742ZM12.961 22.4043C12.0182 22.4043 11.2474 21.6334 11.2474 20.6907C11.2474 19.748 12.0133 18.9771 12.961 18.9771C13.9086 18.9771 14.6745 19.748 14.6745 20.6907C14.6745 21.6383 13.9037 22.4043 12.961 22.4043Z" fill="#131429"/>
<path d="M22.0445 17.7742C20.4389 17.7742 19.1279 19.0802 19.1279 20.6907C19.1279 22.2963 20.434 23.6072 22.0445 23.6072C23.6549 23.6072 24.961 22.3012 24.961 20.6907C24.961 19.0851 23.65 17.7742 22.0445 17.7742ZM22.0445 22.4043C21.1017 22.4043 20.3309 21.6334 20.3309 20.6907C20.3309 19.748 21.0968 18.9771 22.0445 18.9771C22.9872 18.9771 23.758 19.748 23.758 20.6907C23.758 21.6383 22.9872 22.4043 22.0445 22.4043Z" fill="#131429"/>
<path d="M3.87747 17.7742C2.2719 17.7742 0.960938 19.0802 0.960938 20.6907C0.960938 22.2963 2.26699 23.6072 3.87747 23.6072C5.48794 23.6072 6.794 22.3012 6.794 20.6907C6.794 19.0851 5.48794 17.7742 3.87747 17.7742ZM3.87747 22.4043C2.93475 22.4043 2.16388 21.6334 2.16388 20.6907C2.16388 19.748 2.92984 18.9771 3.87747 18.9771C4.82509 18.9771 5.59105 19.748 5.59105 20.6907C5.59105 21.6383 4.82509 22.4043 3.87747 22.4043Z" fill="#131429"/>
</g>
<defs>
<clipPath id="clip0">
<path d="M0.960938 0H24.9609V24H0.960938V0Z" fill="white"/>
</clipPath>
</defs>
</svg>
