<svg width="25" height="24" viewBox="0 0 25 24" fill="none" xmlns="http://www.w3.org/2000/svg">
<path d="M12.9607 9.08569C11.3541 9.08569 10.0464 10.3934 10.0464 12C10.0464 13.6065 11.3541 14.9143 12.9607 14.9143C14.5672 14.9143 15.875 13.6065 15.875 12C15.875 10.3934 14.5672 9.08569 12.9607 9.08569ZM14.675 12C14.675 12.9453 13.906 13.7143 12.9607 13.7143C12.0154 13.7143 11.2464 12.9453 11.2464 12C11.2464 11.0547 12.0154 10.2857 12.9607 10.2857C13.906 10.2857 14.675 11.0547 14.675 12Z" fill="#131429"/>
<path d="M10.0464 21.0857C10.0464 22.6922 11.3541 24 12.9607 24C14.5672 24 15.875 22.6922 15.875 21.0857C15.875 19.4791 14.5672 18.1714 12.9607 18.1714C11.3541 18.1714 10.0464 19.4791 10.0464 21.0857ZM14.675 21.0857C14.675 22.031 13.906 22.8 12.9607 22.8C12.0154 22.8 11.2464 22.031 11.2464 21.0857C11.2464 20.1404 12.0154 19.3714 12.9607 19.3714C13.906 19.3714 14.675 20.1404 14.675 21.0857Z" fill="#131429"/>
<path d="M10.0464 2.91429C10.0464 4.52082 11.3541 5.82857 12.9607 5.82857C14.5672 5.82857 15.875 4.52082 15.875 2.91429C15.875 1.30776 14.5672 0 12.9607 0C11.3541 0 10.0464 1.30776 10.0464 2.91429ZM14.675 2.91429C14.675 3.85959 13.906 4.62857 12.9607 4.62857C12.0154 4.62857 11.2464 3.85959 11.2464 2.91429C11.2464 1.96898 12.0154 1.2 12.9607 1.2C13.906 1.2 14.675 1.96898 14.675 2.91429Z" fill="#131429"/>
</svg>
