<svg width="24" height="24" viewBox="0 0 24 24" fill="none" xmlns="http://www.w3.org/2000/svg">
<g clip-path="url(#clip0)">
<path d="M23.759 10.6049L13.1597 1.86968C12.963 1.70737 12.6875 1.67294 12.4564 1.78115C12.2252 1.88935 12.0776 2.12544 12.0776 2.3812V6.98487C6.93294 7.17177 3.39657 8.98668 1.55707 12.3853C-0.0266755 15.3167 -0.0119201 18.7892 0.0028353 21.0861C0.0028353 21.273 0.0028353 21.4501 0.0028353 21.6173C0.0028353 21.9173 0.204492 22.1829 0.499599 22.2616C0.553702 22.2764 0.612724 22.2813 0.666827 22.2813C0.902913 22.2813 1.12424 22.1583 1.24229 21.9468C4.83276 15.6168 7.78875 15.3118 12.0727 15.2971V19.886C12.0727 20.1417 12.2203 20.3778 12.4564 20.486C12.6925 20.5942 12.963 20.5598 13.1646 20.3975L23.759 11.6328C23.9114 11.5049 24 11.318 24 11.1213C24 10.9246 23.9114 10.7327 23.759 10.6049ZM13.4056 18.4744V14.6331C13.4056 14.456 13.3368 14.2888 13.2089 14.1658C13.0859 14.0429 12.9138 13.9691 12.7416 13.9691C10.066 13.9691 8.015 14.0429 6.02303 14.9724C4.30157 15.7742 2.81127 17.1366 1.34066 19.2761C1.39968 17.3235 1.65544 14.9921 2.72274 13.0198C4.41469 9.89168 7.69038 8.34237 12.7416 8.2981C13.1056 8.29318 13.4007 7.99807 13.4007 7.63411V3.78788L22.2884 11.1213L13.4056 18.4744Z" fill="#131429"/>
</g>
<defs>
<clipPath id="clip0">
<path d="M0 0H24V24H0V0Z" fill="white"/>
</clipPath>
</defs>
</svg>
