<svg width="25" height="24" viewBox="0 0 25 24" fill="none" xmlns="http://www.w3.org/2000/svg">
<path d="M3.20459 12.6825V22.2422C3.20459 23.2095 3.9951 24 4.96236 24H20.9591C21.9264 24 22.7169 23.2095 22.7169 22.2422V12.6825C22.7169 11.7152 21.9264 10.9247 20.9591 10.9247H19.7218V6.76105C19.7218 3.03437 16.6874 0 12.9607 0C9.23405 0 6.19968 3.03437 6.19968 6.76105C6.19968 7.09493 6.46973 7.36498 6.80361 7.36498C7.13749 7.36498 7.40754 7.09493 7.40754 6.76105C7.40754 3.69722 9.90181 1.20295 12.9656 1.20295C16.0295 1.20295 18.5237 3.69722 18.5237 6.76105V10.9247H4.96236C3.9951 10.9296 3.20459 11.7152 3.20459 12.6825ZM21.5139 12.6825V22.2422C21.5139 22.5466 21.2635 22.7971 20.9591 22.7971H4.96236C4.65795 22.7971 4.40754 22.5466 4.40754 22.2422V12.6825C4.40754 12.3781 4.65795 12.1277 4.96236 12.1277H20.9591C21.2635 12.1326 21.5139 12.3781 21.5139 12.6825Z" fill="#131429"/>
<path d="M12.9608 19.9101C14.3111 19.9101 15.4109 18.8102 15.4109 17.46C15.4109 16.1097 14.3111 15.0099 12.9608 15.0099C11.6106 15.0099 10.5107 16.1097 10.5107 17.46C10.5107 18.8151 11.6106 19.9101 12.9608 19.9101ZM12.9608 16.2177C13.6482 16.2177 14.208 16.7775 14.208 17.4649C14.208 18.1523 13.6482 18.7071 12.9608 18.7071C12.2734 18.7071 11.7137 18.1474 11.7137 17.46C11.7137 16.7726 12.2734 16.2177 12.9608 16.2177Z" fill="#131429"/>
</svg>
