<svg width="24" height="25" viewBox="0 0 24 25" fill="none" xmlns="http://www.w3.org/2000/svg">
<g clip-path="url(#clip0)">
<path d="M23.7945 0.213425C23.595 0.00979455 23.288 -0.0476395 23.0321 0.0672287L0.415625 10.1809C0.175133 10.2905 0.0165103 10.5255 0.00115975 10.7917C-0.0141908 11.058 0.123964 11.3086 0.349106 11.4392L8.23418 16.0026L12.9161 24.1321C13.0389 24.3462 13.2692 24.4819 13.5097 24.4819C13.525 24.4819 13.5352 24.4819 13.5506 24.4819C13.8116 24.4663 14.0367 24.3044 14.1442 24.059L23.9429 0.991396C24.0555 0.72511 23.9992 0.417055 23.7945 0.213425ZM20.1974 2.87106L8.62306 14.6033L2.23211 10.9066L20.1974 2.87106ZM13.4176 22.2211L9.6055 15.5953L21.2463 3.79522L13.4176 22.2211Z" fill="#131429"/>
</g>
<defs>
<clipPath id="clip0">
<path d="M0 0H24V24.4898H0V0Z" fill="white"/>
</clipPath>
</defs>
</svg>
