<svg width="25" height="24" viewBox="0 0 25 24" fill="none" xmlns="http://www.w3.org/2000/svg">
<g clip-path="url(#clip0)">
<path d="M19.0507 14.8671C18.5594 14.3555 17.9667 14.082 17.3386 14.082C16.7156 14.082 16.1178 14.3505 15.6062 14.8621L14.0056 16.4576C13.8739 16.3867 13.7422 16.3209 13.6156 16.255C13.4332 16.1639 13.261 16.0777 13.1141 15.9866C11.6147 15.0343 10.2522 13.7933 8.94529 12.1875C8.31212 11.3872 7.88663 10.7135 7.57764 10.0297C7.993 9.64979 8.37797 9.25469 8.75281 8.87479C8.89464 8.73296 9.03647 8.58607 9.1783 8.44424C10.242 7.38051 10.242 6.00273 9.1783 4.939L7.79545 3.55616C7.63843 3.39913 7.47634 3.23704 7.32438 3.07495C7.02045 2.7609 6.70134 2.43671 6.37209 2.13279C5.88075 1.64652 5.29317 1.38818 4.67519 1.38818C4.05722 1.38818 3.4595 1.64652 2.95297 2.13279C2.9479 2.13786 2.9479 2.13786 2.94284 2.14292L1.22061 3.88034C0.572246 4.52871 0.202475 5.31891 0.121429 6.23574C-0.000139564 7.71482 0.435482 9.0926 0.769796 9.99424C1.59038 12.2078 2.8162 14.2593 4.6448 16.4576C6.86343 19.1068 9.53287 21.1988 12.5822 22.6728C13.7473 23.225 15.3023 23.8784 17.0397 23.9898C17.1461 23.9949 17.2576 24 17.3589 24C18.529 24 19.5116 23.5795 20.2816 22.7438C20.2866 22.7336 20.2968 22.7286 20.3018 22.7184C20.5652 22.3993 20.8692 22.1106 21.1883 21.8016C21.4061 21.5939 21.629 21.3761 21.8468 21.1482C22.3482 20.6264 22.6116 20.0186 22.6116 19.3956C22.6116 18.7674 22.3432 18.1647 21.8316 17.6581L19.0507 14.8671ZM20.8641 20.2009C20.859 20.2009 20.859 20.206 20.8641 20.2009C20.6665 20.4137 20.4639 20.6062 20.2461 20.8189C19.9169 21.133 19.5826 21.4622 19.2685 21.832C18.7569 22.3791 18.1541 22.6374 17.3639 22.6374C17.2879 22.6374 17.2069 22.6374 17.1309 22.6323C15.6265 22.5361 14.2285 21.9485 13.1799 21.447C10.3129 20.0591 7.79545 18.0887 5.70346 15.5915C3.97617 13.5096 2.82127 11.5848 2.0564 9.51809C1.58532 8.25682 1.4131 7.27414 1.48908 6.34718C1.53973 5.75453 1.76767 5.26319 2.1881 4.84276L3.91539 3.11547C4.16359 2.88247 4.42699 2.75583 4.68532 2.75583C5.00444 2.75583 5.26277 2.94832 5.42486 3.11041C5.42993 3.11547 5.435 3.12054 5.44006 3.1256C5.74905 3.41433 6.04284 3.71319 6.35183 4.0323C6.50885 4.1944 6.67094 4.35649 6.83304 4.52364L8.21588 5.90649C8.75281 6.44342 8.75281 6.93982 8.21588 7.47675C8.06898 7.62365 7.92715 7.77054 7.78026 7.91237C7.35477 8.34799 6.94954 8.75322 6.50885 9.14832C6.49872 9.15845 6.48859 9.16352 6.48353 9.17365C6.0479 9.60927 6.12895 10.0348 6.22013 10.3235C6.22519 10.3387 6.23026 10.3539 6.23532 10.3691C6.59496 11.2403 7.1015 12.0609 7.87143 13.0385L7.8765 13.0436C9.27454 14.7658 10.7486 16.1081 12.3745 17.1364C12.5822 17.2681 12.795 17.3745 12.9976 17.4758C13.1799 17.567 13.3522 17.6531 13.4991 17.7442C13.5193 17.7544 13.5396 17.7696 13.5598 17.7797C13.7321 17.8658 13.8942 17.9063 14.0613 17.9063C14.4817 17.9063 14.7451 17.6429 14.8312 17.5568L16.5636 15.8245C16.7358 15.6522 17.0094 15.4446 17.3285 15.4446C17.6425 15.4446 17.9009 15.6421 18.0579 15.8143C18.0629 15.8194 18.0629 15.8194 18.068 15.8245L20.859 18.6155C21.3808 19.1322 21.3808 19.664 20.8641 20.2009Z" fill="#131429"/>
<path d="M13.0531 5.70896C14.3802 5.93184 15.5858 6.55994 16.5482 7.52236C17.5106 8.48478 18.1337 9.69034 18.3616 11.0175C18.4173 11.3518 18.706 11.5848 19.0353 11.5848C19.0758 11.5848 19.1113 11.5797 19.1518 11.5747C19.5266 11.5139 19.7748 11.1593 19.7141 10.7845C19.4405 9.17873 18.6807 7.71484 17.5208 6.55488C16.3608 5.39491 14.8969 4.6351 13.2912 4.36157C12.9163 4.30079 12.5668 4.54899 12.501 4.91876C12.4351 5.28853 12.6783 5.64817 13.0531 5.70896Z" fill="#131429"/>
<path d="M24.0553 10.5869C23.6045 7.94279 22.3584 5.53674 20.4437 3.62203C18.529 1.70732 16.123 0.461243 13.4789 0.0104253C13.1091 -0.0554245 12.7596 0.197844 12.6937 0.567615C12.6329 0.942452 12.8811 1.29196 13.256 1.35781C15.6164 1.75798 17.7692 2.87742 19.4813 4.58445C21.1934 6.29654 22.3078 8.44932 22.7079 10.8098C22.7637 11.1441 23.0524 11.3771 23.3816 11.3771C23.4222 11.3771 23.4576 11.372 23.4981 11.367C23.8679 11.3113 24.1212 10.9567 24.0553 10.5869Z" fill="#131429"/>
</g>
<defs>
<clipPath id="clip0">
<path d="M0.0830078 0H24.083V24H0.0830078V0Z" fill="white"/>
</clipPath>
</defs>
</svg>
