<svg width="24" height="24" viewBox="0 0 24 24" fill="none" xmlns="http://www.w3.org/2000/svg">
<path d="M20.7473 12.6072H11.3953V3.25507C11.3953 2.87716 11.0929 2.57483 10.715 2.57483C4.8095 2.57483 0.00244141 7.38188 0.00244141 13.2874C0.00244141 19.1929 4.8095 24 10.715 24C16.6205 24 21.4276 19.1929 21.4276 13.2874C21.4276 12.9145 21.1202 12.6072 20.7473 12.6072ZM10.715 22.6395C5.56028 22.6395 1.36293 18.4421 1.36293 13.2874C1.36293 8.35942 5.19245 4.30819 10.0348 3.96051V13.2874C10.0348 13.6653 10.3371 13.9676 10.715 13.9676H20.0419C19.6942 18.81 15.643 22.6395 10.715 22.6395Z" fill="#131429"/>
<path d="M23.9973 10.6773C23.9872 8.07726 23.0349 5.57296 21.3166 3.62293C19.281 1.32018 16.3584 0 13.2847 0C12.9068 0 12.6045 0.30233 12.6045 0.680243V10.7126C12.6045 11.0905 12.9068 11.3928 13.2847 11.3928H23.3171C23.695 11.3928 23.9973 11.0905 23.9973 10.7126C23.9973 10.7025 23.9973 10.6924 23.9973 10.6773ZM13.965 10.0374V1.39072C16.3937 1.56708 18.6713 2.69074 20.2938 4.52992C21.6542 6.06676 22.4605 8.00168 22.6116 10.0374H13.965Z" fill="#131429"/>
</svg>
