<svg width="25" height="24" viewBox="0 0 25 24" fill="none" xmlns="http://www.w3.org/2000/svg">
<g clip-path="url(#clip0)">
<path d="M12.2958 0C5.67908 0 0.295898 5.38319 0.295898 12C0.295898 15.0613 1.44886 17.9764 3.5422 20.2082C3.90623 20.5962 4.51572 20.6157 4.90389 20.2517C5.29194 19.8877 5.31146 19.2781 4.94744 18.89C3.19038 17.0167 2.22264 14.5698 2.22264 12C2.22264 6.44559 6.74149 1.92674 12.2958 1.92674C17.8502 1.92674 22.3692 6.44559 22.3692 12C22.3692 17.5544 17.8502 22.0733 12.2958 22.0733C11.3111 22.0733 10.3458 21.9331 9.41593 21.6559L10.4013 17.8045C11.0109 17.9532 11.6399 18.0289 12.282 18.0289C16.3292 18.0289 19.6219 14.9906 19.6219 11.256C19.6219 7.52135 16.3292 4.48288 12.282 4.48288C8.23484 4.48288 4.94217 7.52135 4.94217 11.256C4.94217 12.6018 5.36862 13.9022 6.17554 15.0166C6.48755 15.4476 7.08997 15.544 7.52079 15.2319C7.95174 14.9199 8.04808 14.3176 7.73607 13.8867C7.16871 13.103 6.86891 12.1934 6.86891 11.256C6.86891 8.58376 9.29725 6.40963 12.282 6.40963C15.2668 6.40963 17.6951 8.58376 17.6951 11.256C17.6951 13.9282 15.2669 16.1022 12.282 16.1022C11.8024 16.1022 11.3329 16.0472 10.8788 15.9381L12.2274 10.6667C12.3592 10.1512 12.0482 9.62651 11.5329 9.4946C11.0174 9.36268 10.4927 9.67365 10.3608 10.1891L7.32953 22.0377C7.20905 22.5086 7.45837 22.9955 7.91064 23.1732C9.30765 23.7218 10.7832 24 12.2958 24C18.9127 24 24.2959 18.6168 24.2959 12C24.2959 5.38319 18.9127 0 12.2958 0Z" fill="#131429"/>
</g>
<defs>
<clipPath id="clip0">
<path d="M0.295898 0H24.2959V24H0.295898V0Z" fill="white"/>
</clipPath>
</defs>
</svg>
