<svg width="24" height="24" viewBox="0 0 24 24" fill="none" xmlns="http://www.w3.org/2000/svg">
<path d="M20.4896 20.4896C25.1701 15.8091 25.1701 8.19094 20.4896 3.5104C15.8091 -1.17013 8.19094 -1.17013 3.5104 3.5104C-1.17013 8.19094 -1.17013 15.8091 3.5104 20.4896C8.19094 25.1701 15.8091 25.1701 20.4896 20.4896ZM4.3574 4.3574C8.57283 0.141983 15.4272 0.141983 19.6426 4.3574C23.858 8.57283 23.858 15.4272 19.6426 19.6426C15.4272 23.858 8.57283 23.858 4.3574 19.6426C0.141983 15.4272 0.146879 8.57283 4.3574 4.3574Z" fill="#131429"/>
<path d="M11.9999 16.4945C12.1664 16.4945 12.3132 16.426 12.4258 16.3183C12.5335 16.2106 12.6021 16.0588 12.6021 15.8923V12.5974H15.8971C16.0635 12.5974 16.2104 12.5288 16.323 12.4211C16.4307 12.3134 16.4993 12.1616 16.4993 11.9952C16.4993 11.6622 16.23 11.3929 15.902 11.3978H12.607V8.10287C12.607 7.76994 12.3377 7.50066 12.0097 7.50556C11.6768 7.50556 11.4075 7.77484 11.4124 8.10287V11.3978H8.11739C7.78447 11.3978 7.51519 11.6671 7.52009 11.9952C7.52009 12.3281 7.78936 12.5974 8.11739 12.5925H11.4124V15.8874C11.3977 16.2253 11.667 16.4945 11.9999 16.4945Z" fill="#131429"/>
</svg>
