<svg width="25" height="24" viewBox="0 0 25 24" fill="none" xmlns="http://www.w3.org/2000/svg">
<g clip-path="url(#clip0)">
<path d="M5.53517 4.66775C9.07849 1.52423 14.3812 1.47616 17.9735 4.3457L15.1261 4.45145C14.7586 4.46587 14.4743 4.76388 14.489 5.12437C14.5037 5.47526 14.7978 5.74923 15.1506 5.74923C15.1604 5.74923 15.1653 5.74923 15.1751 5.74923L19.5467 5.59061C19.9045 5.57619 20.1838 5.2926 20.1838 4.94172V4.89366C20.1838 4.88404 20.1838 4.87924 20.1838 4.86962V4.86482L20.0221 0.625393C20.0074 0.264898 19.6986 -0.0138847 19.336 0.000535065C18.9684 0.0149549 18.6842 0.312964 18.6989 0.673459L18.8018 3.33151C17.0228 1.90395 14.8321 1.07721 12.4895 0.961856C9.58817 0.817657 6.79959 1.7934 4.64812 3.70643C1.68801 6.33564 0.433388 10.3347 1.37435 14.1416C1.44786 14.4396 1.71741 14.6366 2.01636 14.6366C2.07027 14.6366 2.11928 14.6318 2.17319 14.6174C2.52605 14.5309 2.74659 14.18 2.65837 13.8339C1.83503 10.4885 2.93282 6.97492 5.53517 4.66775Z" fill="black"/>
<path d="M22.7028 9.3974C22.6146 9.05132 22.2568 8.83502 21.9039 8.92154C21.5511 9.00806 21.3305 9.35894 21.4188 9.70502C22.247 13.0504 21.1443 16.564 18.542 18.8712C16.7139 20.491 14.4203 21.2889 12.1365 21.2889C9.95567 21.2889 7.77969 20.5631 6.02518 19.1308L8.90688 18.876C9.26955 18.8424 9.5391 18.5299 9.50479 18.1694C9.47048 17.8089 9.15193 17.5494 8.78436 17.583L4.42751 17.9676C4.06484 18.0012 3.7953 18.3136 3.8296 18.6741L4.22167 22.9472C4.25108 23.2837 4.54023 23.5384 4.87839 23.5384C4.89799 23.5384 4.91759 23.5384 4.9372 23.5336C5.29986 23.5 5.56941 23.1875 5.5351 22.827L5.29986 20.2267C7.07887 21.6398 9.25975 22.4617 11.5877 22.5771C11.7739 22.5867 11.9601 22.5915 12.1414 22.5915C14.8418 22.5915 17.4099 21.6206 19.429 19.8325C22.3891 17.2033 23.6437 13.209 22.7028 9.3974Z" fill="black"/>
</g>
<defs>
<clipPath id="clip0">
<path d="M0.0385742 0H24.0386V23.5385H0.0385742V0Z" fill="white"/>
</clipPath>
</defs>
</svg>
