<svg width="25" height="25" viewBox="0 0 25 25" fill="none" xmlns="http://www.w3.org/2000/svg">
<g clip-path="url(#clip0)">
<path d="M21.0939 12.7624C19.3565 10.6056 16.0829 8.0384 10.3111 7.81821V3.82485C10.3111 3.58965 10.1786 3.36947 9.96751 3.26938C9.75647 3.1693 9.50616 3.19932 9.32948 3.34945L0.239902 10.9909C0.102479 11.106 0.019043 11.2811 0.019043 11.4613C0.019043 11.6464 0.0975706 11.8166 0.234994 11.9317L9.32457 19.6031C9.50616 19.7533 9.75156 19.7883 9.96261 19.6832C10.1736 19.5831 10.3062 19.3679 10.3062 19.1277V15.1494C14.0755 15.1644 19.8375 15.4496 22.8951 20.9493C23.0031 21.1444 23.2043 21.2595 23.4203 21.2595C23.4694 21.2595 23.5233 21.2545 23.5724 21.2395C23.8375 21.1694 24.0191 20.9242 24.0191 20.649C24.024 18.5923 23.2534 15.4446 21.0939 12.7624ZM9.70739 13.9233C9.54543 13.9233 9.39328 13.9884 9.2804 14.1035C9.16751 14.2186 9.10371 14.3737 9.10371 14.5389V17.8266L1.56996 11.4663L9.10862 5.12595V8.41371C9.10862 8.74899 9.37365 9.02423 9.70248 9.02923C18.3405 9.1143 21.5602 14.4838 22.4976 18.257C18.7773 13.9284 13.2068 13.9233 9.70739 13.9233Z" fill="#131429"/>
</g>
<defs>
<clipPath id="clip0">
<path d="M0.019043 0H24.019V24.4706H0.019043V0Z" fill="white"/>
</clipPath>
</defs>
</svg>
