<svg width="25" height="24" viewBox="0 0 25 24" fill="none" xmlns="http://www.w3.org/2000/svg">
<g clip-path="url(#clip0)">
<path d="M12.019 24C18.6357 24 24.019 18.6166 24.019 12C24.019 5.38336 18.6357 0 12.019 0C5.4024 0 0.019043 5.38336 0.019043 12C0.019043 18.6166 5.4024 24 12.019 24ZM12.019 1.19902C17.975 1.19902 22.82 6.04405 22.82 12C22.82 17.956 17.975 22.801 12.019 22.801C6.06309 22.801 1.21806 17.956 1.21806 12C1.21806 6.04405 6.06309 1.19902 12.019 1.19902Z" fill="#131429"/>
<path d="M6.80704 12.602H15.7826L13.4335 14.9511C13.1985 15.186 13.1985 15.5628 13.4335 15.7977C13.5509 15.9152 13.7026 15.9739 13.8592 15.9739C14.0158 15.9739 14.1676 15.9152 14.285 15.7977L17.6569 12.4258C17.8919 12.1909 17.8919 11.814 17.6569 11.5791L14.285 8.20719C14.0501 7.97228 13.6733 7.97228 13.4384 8.20719C13.2034 8.4421 13.2034 8.81893 13.4384 9.05385L15.7875 11.403H6.80704C6.47425 11.403 6.20508 11.6721 6.20508 12.0049C6.20508 12.3377 6.47425 12.602 6.80704 12.602Z" fill="#131429"/>
</g>
<defs>
<clipPath id="clip0">
<path d="M0.019043 0H24.019V24H0.019043V0Z" fill="white"/>
</clipPath>
</defs>
</svg>
