<svg width="24" height="24" viewBox="0 0 24 24" fill="none" xmlns="http://www.w3.org/2000/svg">
<g clip-path="url(#clip0)">
<path d="M23.7901 22.3016L17.9577 16.5907C19.5222 14.8295 20.4694 12.5316 20.4694 10.0201C20.4694 4.49157 15.877 0 10.2362 0C4.59007 0 0.00292969 4.49678 0.00292969 10.0201C0.00292969 15.5433 4.59539 20.0401 10.2362 20.0401C12.8012 20.0401 15.1479 19.1126 16.9466 17.5807L22.779 23.2916C22.9173 23.4271 23.1036 23.5 23.2845 23.5C23.4655 23.5 23.6517 23.4323 23.7901 23.2916C24.0668 23.0206 24.0668 22.5725 23.7901 22.3016ZM1.43442 10.0201C1.43442 5.26796 5.38297 1.40687 10.2309 1.40687C15.0841 1.40687 19.0273 5.27317 19.0273 10.0201C19.0273 14.767 15.0841 18.6385 10.2309 18.6385C5.38297 18.6385 1.43442 14.7722 1.43442 10.0201Z" fill="#131429"/>
</g>
<defs>
<clipPath id="clip0">
<path d="M0 0H24V23.5H0V0Z" fill="white"/>
</clipPath>
</defs>
</svg>
