<svg width="24" height="24" viewBox="0 0 24 24" fill="none" xmlns="http://www.w3.org/2000/svg">
<path d="M19.0164 15.4186C17.636 15.4186 16.4051 16.0764 15.6177 17.093L9.02471 13.4103C9.17919 12.9668 9.26391 12.4884 9.26391 11.995C9.26391 11.4967 9.17919 11.0233 9.01973 10.5748L15.6078 6.89701C16.3902 7.9186 17.626 8.5814 19.0114 8.5814C21.3735 8.5814 23.3021 6.65781 23.3021 4.2907C23.3021 1.92359 21.3785 0 19.0114 0C16.6443 0 14.7207 1.92359 14.7207 4.2907C14.7207 4.78904 14.8054 5.26744 14.9649 5.71096L8.38185 9.3887C7.59946 8.36213 6.36358 7.70432 4.9782 7.70432C2.61607 7.70432 0.6875 9.62791 0.6875 11.995C0.6875 14.3621 2.61607 16.2857 4.98318 16.2857C6.36856 16.2857 7.60444 15.6229 8.39182 14.5963L14.9799 18.2791C14.8204 18.7276 14.7307 19.211 14.7307 19.7093C14.7307 22.0714 16.6543 24 19.0214 24C21.3885 24 23.3121 22.0764 23.3121 19.7093C23.3121 17.3422 21.3835 15.4186 19.0164 15.4186ZM19.0164 1.3505C20.641 1.3505 21.9616 2.6711 21.9616 4.29568C21.9616 5.92027 20.641 7.24086 19.0164 7.24086C17.3918 7.24086 16.0712 5.92027 16.0712 4.29568C16.0712 2.6711 17.3968 1.3505 19.0164 1.3505ZM4.98318 14.9402C3.3586 14.9402 2.038 13.6196 2.038 11.995C2.038 10.3704 3.3586 9.04983 4.98318 9.04983C6.60777 9.04983 7.92836 10.3704 7.92836 11.995C7.92836 13.6196 6.60278 14.9402 4.98318 14.9402ZM19.0164 22.6495C17.3918 22.6495 16.0712 21.3289 16.0712 19.7043C16.0712 18.0797 17.3918 16.7591 19.0164 16.7591C20.641 16.7591 21.9616 18.0797 21.9616 19.7043C21.9616 21.3289 20.641 22.6495 19.0164 22.6495Z" fill="#131429"/>
</svg>
