<svg width="24" height="24" viewBox="0 0 24 24" fill="none" xmlns="http://www.w3.org/2000/svg">
<g clip-path="url(#clip0)">
<path d="M7.20508 15.4983H20.4291C21.9286 15.4983 23.1518 14.2986 23.1518 12.8279V7.37105C23.1518 7.36622 23.1518 7.35654 23.1518 7.3517C23.1518 7.33719 23.1518 7.32752 23.1518 7.313C23.1518 7.30333 23.1518 7.29365 23.1469 7.28398C23.1469 7.2743 23.142 7.25979 23.142 7.25011C23.142 7.24044 23.137 7.23076 23.137 7.22109C23.1321 7.21141 23.1321 7.20174 23.1272 7.18722C23.1222 7.17755 23.1222 7.16787 23.1173 7.1582C23.1124 7.14852 23.1124 7.13885 23.1075 7.12917C23.1025 7.1195 23.0976 7.10982 23.0927 7.09531C23.0877 7.08563 23.0828 7.07596 23.0779 7.07112C23.0729 7.06145 23.068 7.05177 23.0631 7.04209C23.0581 7.03242 23.0532 7.02758 23.0483 7.01791C23.0433 7.00823 23.0335 6.99856 23.0285 6.98888C23.0236 6.9792 23.0187 6.97437 23.0088 6.96469C23.0039 6.95502 22.994 6.95018 22.9891 6.9405C22.9841 6.93083 22.9743 6.92599 22.9693 6.91632C22.9644 6.90664 22.9545 6.9018 22.9496 6.89697C22.9397 6.88729 22.9348 6.88245 22.9249 6.87278C22.9151 6.86794 22.9102 6.85826 22.9003 6.85343C22.8904 6.84859 22.8806 6.83891 22.8707 6.83408C22.8608 6.82924 22.8559 6.8244 22.846 6.81956C22.8362 6.81473 22.8263 6.80989 22.8164 6.80021C22.8066 6.79537 22.7967 6.79054 22.7868 6.7857C22.777 6.78086 22.7671 6.77602 22.7572 6.77119C22.7474 6.76635 22.7375 6.76151 22.7276 6.75667C22.7178 6.75184 22.7079 6.75184 22.6981 6.747C22.6882 6.74216 22.6734 6.73732 22.6635 6.73732C22.6537 6.73732 22.6438 6.73249 22.6389 6.73249C22.6241 6.72765 22.6142 6.72765 22.5994 6.72765C22.5945 6.72765 22.5895 6.72281 22.5797 6.72281L5.81905 4.45396V2.16091C5.81905 2.13673 5.81905 2.11254 5.81412 2.09319C5.81412 2.08835 5.81412 2.08351 5.80918 2.07384C5.80918 2.05932 5.80425 2.04481 5.80425 2.0303C5.79932 2.01578 5.79932 2.00611 5.79439 1.9916C5.79439 1.98192 5.78945 1.97708 5.78945 1.96741C5.78452 1.9529 5.77959 1.93838 5.77466 1.92387C5.77466 1.91903 5.76972 1.90936 5.76972 1.90452C5.76479 1.89001 5.75986 1.88033 5.74999 1.86582C5.74506 1.86098 5.74506 1.8513 5.74013 1.84647C5.7352 1.83679 5.73026 1.82712 5.7204 1.81744C5.71547 1.80777 5.71053 1.80293 5.7056 1.79325C5.70067 1.78358 5.69574 1.77874 5.6908 1.76906C5.68587 1.75939 5.67601 1.74971 5.67107 1.74004C5.66614 1.7352 5.66121 1.73036 5.65628 1.72553C5.64641 1.71585 5.63655 1.70618 5.62668 1.6965C5.62175 1.69166 5.61682 1.68683 5.61188 1.68199C5.60202 1.67231 5.59215 1.66264 5.57736 1.65296C5.57242 1.64812 5.56256 1.64329 5.55763 1.63845C5.54776 1.62877 5.5379 1.62394 5.52803 1.61426C5.51323 1.60459 5.49844 1.59491 5.48857 1.59007C5.48364 1.58523 5.47871 1.58523 5.47377 1.5804C5.45404 1.57072 5.42938 1.56105 5.40965 1.55137L1.7744 0.0517023C1.43406 -0.0885893 1.04439 0.0662152 0.901349 0.400012C0.758306 0.73381 0.916146 1.11598 1.25649 1.25628L4.48234 2.59146V5.5521V6.02135V9.62056V12.8376V16.9012C4.48234 18.2557 5.51817 19.3781 6.85487 19.5474C6.61318 19.9441 6.47014 20.4085 6.47014 20.9019C6.47014 22.3581 7.6786 23.5385 9.15835 23.5385C10.6381 23.5385 11.8466 22.3532 11.8466 20.9019C11.8466 20.4182 11.7134 19.9586 11.4766 19.5716H17.4647C17.2279 19.9634 17.0947 20.4182 17.0947 20.9019C17.0947 22.3581 18.3032 23.5385 19.7829 23.5385C21.2627 23.5385 22.4712 22.3532 22.4712 20.9019C22.4712 19.4506 21.2627 18.2654 19.7829 18.2654H7.20508C6.43561 18.2654 5.81412 17.651 5.81412 16.9012V15.1306C6.21858 15.3628 6.69703 15.4983 7.20508 15.4983ZM10.5197 20.8971C10.5197 21.6324 9.90809 22.2275 9.16328 22.2275C8.41847 22.2275 7.80684 21.6276 7.80684 20.8971C7.80684 20.1666 8.41847 19.5667 9.16328 19.5667C9.90809 19.5667 10.5197 20.1618 10.5197 20.8971ZM21.1443 20.8971C21.1443 21.6324 20.5327 22.2275 19.7879 22.2275C19.0431 22.2275 18.4314 21.6276 18.4314 20.8971C18.4314 20.1666 19.0431 19.5667 19.7879 19.5667C20.5327 19.5667 21.1443 20.1618 21.1443 20.8971ZM20.4291 14.1921H7.20508C6.43561 14.1921 5.81412 13.5777 5.81412 12.8279V9.61088V6.01168V5.76979L21.8201 7.93222V12.8231C21.8201 13.5826 21.1936 14.1921 20.4291 14.1921Z" fill="#131429"/>
</g>
<defs>
<clipPath id="clip0">
<path d="M0 0H24V23.5385H0V0Z" fill="white"/>
</clipPath>
</defs>
</svg>
