<svg width="24" height="25" viewBox="0 0 24 25" fill="none" xmlns="http://www.w3.org/2000/svg">
<g clip-path="url(#clip0)">
<path d="M21.5999 21.1528L20.2257 5.37452C20.1962 5.02423 19.9067 4.759 19.568 4.759H16.741C16.7018 2.12679 14.5913 0 11.9999 0C9.40852 0 7.29809 2.12679 7.25882 4.759H4.43183C4.08827 4.759 3.80361 5.02423 3.77416 5.37452L2.39993 21.1528C2.39993 21.1728 2.39502 21.1928 2.39502 21.2128C2.39502 23.0094 4.00974 24.4706 5.99747 24.4706H18.0024C19.9901 24.4706 21.6048 23.0094 21.6048 21.2128C21.6048 21.1928 21.6048 21.1728 21.5999 21.1528ZM11.9999 1.35114C13.8601 1.35114 15.3766 2.87242 15.4159 4.759H8.58398C8.62324 2.87242 10.1398 1.35114 11.9999 1.35114ZM18.0024 23.1195H5.99747C4.75085 23.1195 3.73981 22.2787 3.72017 21.2429L5.03551 6.11515H7.25392V8.16687C7.25392 8.54219 7.54839 8.84244 7.91649 8.84244C8.28459 8.84244 8.57907 8.54219 8.57907 8.16687V6.11515H15.4159V8.16687C15.4159 8.54219 15.7104 8.84244 16.0785 8.84244C16.4466 8.84244 16.741 8.54219 16.741 8.16687V6.11515H18.9594L20.2797 21.2429C20.2601 22.2787 19.2441 23.1195 18.0024 23.1195Z" fill="#131429"/>
</g>
<defs>
<clipPath id="clip0">
<path d="M0 0H24V24.4706H0V0Z" fill="white"/>
</clipPath>
</defs>
</svg>
