<svg width="48" height="48" viewBox="0 0 48 48" fill="none" xmlns="http://www.w3.org/2000/svg">
<rect x="0.7" y="0.7" width="46.6" height="46.6" rx="4.3" stroke="#E1E1EA" stroke-width="1.4"/>
<path d="M14.2479 17.6472C13.604 17.6472 13.082 18.1767 13.082 18.8297V34.8174C13.082 35.4705 13.604 35.9999 14.2479 35.9999C14.8918 35.9999 15.4138 35.4705 15.4138 34.8174V18.8297C15.4138 18.1765 14.8918 17.6472 14.2479 17.6472Z" fill="#E1E1EA"/>
<path d="M23.7382 20.507C24.8872 19.5183 26.3723 18.9201 27.9935 18.9201C31.6256 18.9201 34.5803 21.9171 34.5803 25.6011V34.8174C34.5803 35.4705 34.0584 35.9999 33.4144 35.9999C32.7705 35.9999 32.2485 35.4705 32.2485 34.8174V25.6011C32.2485 23.2212 30.3397 21.2852 27.9935 21.2852C25.6472 21.2852 23.7382 23.2212 23.7382 25.6011L23.7382 34.8174C23.7382 35.4705 23.2162 35.9999 22.5724 35.9999C21.9285 35.9999 21.4065 35.4705 21.4065 34.8174V18.8297C21.4065 18.1767 21.9285 17.6472 22.5724 17.6472C23.2162 17.6472 23.7382 18.1767 23.7382 18.8297V20.507Z" fill="#E1E1EA"/>
<path d="M14.2477 14.3651C14.5539 14.3651 14.8555 14.2389 15.0731 14.0198C15.2892 13.799 15.4135 13.4947 15.4135 13.1841C15.4135 12.8719 15.2892 12.5676 15.0731 12.3469C14.8555 12.1277 14.5539 12 14.2477 12C13.9414 12 13.6414 12.1277 13.4238 12.3469C13.2061 12.5676 13.0818 12.8719 13.0818 13.1841C13.0818 13.4947 13.2061 13.799 13.4238 14.0198C13.6414 14.2389 13.9414 14.3651 14.2477 14.3651Z" fill="#E1E1EA"/>
</svg>
