<svg width="48" height="48" viewBox="0 0 48 48" fill="none" xmlns="http://www.w3.org/2000/svg">
<rect x="0.7" y="0.7" width="46.6" height="46.6" rx="4.3" stroke="#E1E1EA" stroke-width="1.4"/>
<g clip-path="url(#clip0)">
<path d="M29.1319 12H18.5297C14.9292 12 12 14.9712 12 18.6231V29.3768C12 33.0288 14.9292 35.9999 18.5297 35.9999H29.1319C32.7326 35.9999 35.6618 33.0287 35.6618 29.3768V18.6231C35.662 14.9712 32.7326 12 29.1319 12ZM33.5626 29.3768C33.5626 31.8547 31.575 33.8705 29.132 33.8705H18.5297C16.0868 33.8706 14.0994 31.8547 14.0994 29.3768V18.6231C14.0994 16.1453 16.0868 14.1294 18.5297 14.1294H29.1319C31.5749 14.1294 33.5624 16.1453 33.5624 18.6231V29.3768H33.5626Z" fill="#E1E1EA"/>
<path d="M23.8309 17.8162C20.469 17.8162 17.7339 20.5903 17.7339 24.0003C17.7339 27.4102 20.469 30.1842 23.8309 30.1842C27.1929 30.1842 29.928 27.4102 29.928 24.0003C29.928 20.5903 27.1929 17.8162 23.8309 17.8162ZM23.8309 28.0547C21.6267 28.0547 19.8333 26.2359 19.8333 24.0002C19.8333 21.7643 21.6266 19.9454 23.8309 19.9454C26.0353 19.9454 27.8286 21.7643 27.8286 24.0002C27.8286 26.2359 26.0352 28.0547 23.8309 28.0547Z" fill="#E1E1EA"/>
<path d="M30.1837 16.0105C29.7792 16.0105 29.3819 16.1766 29.0962 16.4676C28.8092 16.7572 28.6442 17.1604 28.6442 17.572C28.6442 17.9824 28.8093 18.3855 29.0962 18.6765C29.3818 18.9661 29.7792 19.1336 30.1837 19.1336C30.5896 19.1336 30.9857 18.9661 31.2726 18.6765C31.5595 18.3855 31.7233 17.9823 31.7233 17.572C31.7233 17.1604 31.5595 16.7572 31.2726 16.4676C30.9871 16.1766 30.5896 16.0105 30.1837 16.0105Z" fill="#E1E1EA"/>
</g>
<defs>
<clipPath id="clip0">
<path d="M12 12H35.662V36H12V12Z" fill="white"/>
</clipPath>
</defs>
</svg>
