<svg width="48" height="48" viewBox="0 0 48 48" fill="none" xmlns="http://www.w3.org/2000/svg">
<rect x="0.7" y="0.7" width="46.6" height="46.6" rx="4.3" stroke="#E1E1EA" stroke-width="1.4"/>
<g clip-path="url(#clip0)">
<path d="M31.5318 15.3428H16.1303C13.8528 15.3428 12 17.2226 12 19.5332V28.4671C12 30.7777 13.8528 32.6574 16.1303 32.6574H31.5319C33.8093 32.6574 35.6621 30.7777 35.6621 28.4671V19.5332C35.662 17.2226 33.8092 15.3428 31.5318 15.3428ZM33.9692 28.467C33.9692 29.8308 32.8758 30.9403 31.5318 30.9403H16.1303C14.7862 30.9403 13.6928 29.8308 13.6928 28.467V19.5331C13.6928 18.1692 14.7862 17.0597 16.1303 17.0597H31.5319C32.8759 17.0597 33.9693 18.1692 33.9693 19.5331V28.467H33.9692Z" fill="#E1E1EA"/>
<path d="M28.3742 23.2829L22.1001 19.0878C21.8402 18.9139 21.5072 18.899 21.2329 19.0486C20.9588 19.1983 20.7878 19.4887 20.7878 19.8045V28.1958C20.7878 28.5116 20.9588 28.8019 21.2329 28.9517C21.3585 29.0204 21.4966 29.0543 21.6341 29.0543C21.7968 29.0543 21.9592 29.0068 22.1001 28.9124L28.3742 24.7163C28.6117 24.5574 28.7547 24.2882 28.7547 23.9995C28.7547 23.711 28.6117 23.4417 28.3742 23.2829ZM22.4806 26.6014V21.3987L26.3707 23.9996L22.4806 26.6014Z" fill="#E1E1EA"/>
</g>
<defs>
<clipPath id="clip0">
<path d="M12 12H35.662V36H12V12Z" fill="white"/>
</clipPath>
</defs>
</svg>
