<svg width="48" height="48" viewBox="0 0 48 48" fill="none" xmlns="http://www.w3.org/2000/svg">
<rect x="0.7" y="0.7" width="46.6" height="46.6" rx="4.3" stroke="#E1E1EA" stroke-width="1.4"/>
<g clip-path="url(#clip0)">
<path d="M23.8309 12C17.3074 12 12 17.3832 12 24C12 27.0613 13.1367 29.9764 15.2006 32.2082C15.5595 32.5962 16.1604 32.6157 16.5431 32.2517C16.9257 31.8877 16.9449 31.2781 16.586 30.89C14.8537 29.0167 13.8996 26.5698 13.8996 24C13.8996 18.4456 18.3548 13.9267 23.8309 13.9267C29.307 13.9267 33.7624 18.4456 33.7624 24C33.7624 29.5544 29.307 34.0733 23.8309 34.0733C22.86 34.0733 21.9083 33.9331 20.9916 33.6559L21.963 29.8045C22.5641 29.9532 23.1842 30.0289 23.8173 30.0289C27.8075 30.0289 31.0538 26.9906 31.0538 23.256C31.0538 19.5214 27.8075 16.4829 23.8173 16.4829C19.8271 16.4829 16.5808 19.5214 16.5808 23.256C16.5808 24.6018 17.0013 25.9022 17.7968 27.0166C18.1044 27.4476 18.6984 27.544 19.1231 27.2319C19.548 26.9199 19.643 26.3176 19.3354 25.8867C18.776 25.103 18.4804 24.1934 18.4804 23.256C18.4804 20.5838 20.8746 18.4096 23.8173 18.4096C26.7601 18.4096 29.1542 20.5838 29.1542 23.256C29.1542 25.9282 26.7602 28.1022 23.8173 28.1022C23.3444 28.1022 22.8816 28.0472 22.4339 27.9381L23.7635 22.6667C23.8934 22.1512 23.5868 21.6265 23.0787 21.4946C22.5705 21.3627 22.0532 21.6737 21.9232 22.1891L18.9346 34.0377C18.8158 34.5086 19.0616 34.9955 19.5075 35.1732C20.8848 35.7218 22.3395 36 23.8309 36C30.3546 36 35.662 30.6168 35.662 24C35.662 17.3832 30.3546 12 23.8309 12Z" fill="#E1E1EA"/>
</g>
<defs>
<clipPath id="clip0">
<path d="M12 12H35.662V36H12V12Z" fill="white"/>
</clipPath>
</defs>
</svg>
