<svg width="48" height="48" viewBox="0 0 48 48" fill="none" xmlns="http://www.w3.org/2000/svg">
<rect x="0.7" y="0.7" width="46.6" height="46.6" rx="4.3" stroke="#E1E1EA" stroke-width="1.4"/>
<path d="M23.3579 18.3918C23.561 18.3918 23.7513 18.3365 23.9151 18.24C24.2459 18.045 24.4683 17.6816 24.4683 17.2656C24.4683 15.36 25.0142 14.2525 26.4925 14.2525H29.6281C30.2413 14.2525 30.7385 13.7482 30.7385 13.1263C30.7385 12.5043 30.2413 12 29.6281 12H26.4925C23.8311 12 22.2476 13.92 22.2476 17.2656C22.2476 17.8874 22.7447 18.3918 23.3579 18.3918Z" fill="#E1E1EA"/>
<path d="M29.39 20.9541H18.0341C17.4209 20.9541 16.9237 21.4584 16.9237 22.0804C16.9237 22.7023 17.4209 23.2066 18.0341 23.2066H22.2477V34.8738C22.2477 35.4958 22.7448 36.0001 23.358 36.0001C23.9713 36.0001 24.4684 35.4958 24.4684 34.8738V23.2066H29.3901C30.0034 23.2066 30.5005 22.7023 30.5005 22.0804C30.5005 21.4584 30.0032 20.9541 29.39 20.9541Z" fill="#E1E1EA"/>
</svg>
