<svg width="48" height="48" viewBox="0 0 48 48" fill="none" xmlns="http://www.w3.org/2000/svg">
<rect x="0.7" y="0.7" width="46.6" height="46.6" rx="4.3" stroke="#E1E1EA" stroke-width="1.4"/>
<g clip-path="url(#clip0)">
<path d="M35.5026 17.1298C35.2217 16.7191 34.6652 16.617 34.2599 16.9021L31.4872 18.8535C31.2353 19.0306 31.0908 19.3264 31.104 19.6369C31.112 19.8231 31.1159 19.9977 31.1159 20.1706C31.1159 25.9193 26.8033 31.8653 19.5861 31.8653C18.1149 31.8653 16.6695 31.5813 15.3186 31.0334L19.5975 29.8194C20.0725 29.6847 20.3498 29.185 20.2169 28.7032C20.084 28.2216 19.5918 27.9403 19.1164 28.075L12.6524 29.9089C12.3136 30.0051 12.062 30.294 12.0099 30.647C11.9578 30.9999 12.1149 31.3511 12.4111 31.5437C14.5571 32.9391 17.0382 33.6768 19.5861 33.6768C24.5935 33.6768 27.7297 31.2773 29.4791 29.2644C31.6543 26.7613 32.9019 23.4468 32.9019 20.1708C32.9019 20.1349 32.9017 20.099 32.9015 20.063L35.2781 18.3905C35.6831 18.1052 35.7837 17.5409 35.5026 17.1298Z" fill="#E1E1EA"/>
<path d="M13.9709 16.8473L22.9702 21.4743C23.0978 21.54 23.2362 21.5723 23.3738 21.5723C23.5698 21.5723 23.7646 21.5069 23.925 21.3793C24.198 21.1621 24.3223 20.8043 24.2437 20.4615C24.184 20.2014 24.1539 19.9306 24.1539 19.657C24.1539 17.7147 25.7121 16.1346 27.6273 16.1346C28.5847 16.1346 29.509 16.54 30.1628 17.2469C30.4072 17.5111 30.7833 17.6021 31.119 17.4784L33.8965 16.4548C34.36 16.2839 34.5993 15.7644 34.4308 15.2943C34.2625 14.824 33.7498 14.5817 33.2867 14.7523L31.0265 15.5852C30.0825 14.7771 28.8735 14.323 27.6273 14.323C24.8972 14.323 22.6464 16.4437 22.3919 19.146L14.7784 15.2316C14.3385 15.0053 13.8011 15.1838 13.5781 15.6299C13.3551 16.0761 13.531 16.6211 13.9709 16.8473Z" fill="#E1E1EA"/>
<path d="M13.5108 22.2711L15.4882 22.8248C15.5677 22.8471 15.6476 22.8576 15.7263 22.8576C16.1179 22.8576 16.4772 22.5942 16.5865 22.1927C16.7179 21.7106 16.4388 21.2117 15.9635 21.0785L13.9861 20.5248C13.511 20.3917 13.019 20.6746 12.8876 21.1568C12.7564 21.6391 13.0354 22.1379 13.5108 22.2711Z" fill="#E1E1EA"/>
<path d="M15.2443 24.9669C14.7515 24.9858 14.3672 25.4063 14.3859 25.9061C14.4041 26.3944 14.8 26.7776 15.2777 26.7776C15.2891 26.7776 15.3005 26.7773 15.312 26.777L17.2839 26.7011C17.7767 26.6822 18.161 26.2617 18.1424 25.7617C18.1237 25.2619 17.7081 24.8725 17.2164 24.891L15.2443 24.9669Z" fill="#E1E1EA"/>
</g>
<defs>
<clipPath id="clip0">
<path d="M12 12H35.662V36H12V12Z" fill="white"/>
</clipPath>
</defs>
</svg>
