<svg width="25" height="24" viewBox="0 0 25 24" fill="none" xmlns="http://www.w3.org/2000/svg">
<g clip-path="url(#clip0)">
<path d="M14.018 2.72913C12.3602 2.72913 10.7371 3.16954 9.31692 4.00583C8.05012 4.75304 6.97631 5.79222 6.1895 7.02933H2.64641C1.20641 7.02933 0.0385742 8.19717 0.0385742 9.63717V14.3629C0.0385742 15.8029 1.20641 16.9708 2.64641 16.9708H6.1895C6.97631 18.2079 8.05012 19.2471 9.31692 19.9943C10.7371 20.8306 12.3602 21.271 14.018 21.271C14.3891 21.271 14.686 20.9741 14.686 20.6029V3.39717C14.686 3.03098 14.3891 2.72913 14.018 2.72913ZM5.89754 15.6347H2.64641C1.94373 15.6347 1.37466 15.0656 1.37466 14.3629V9.63717C1.37466 8.93449 1.94373 8.36542 2.64641 8.36542H5.89754V15.6347ZM13.3499 19.9102C10.841 19.6974 8.55486 18.2871 7.23363 16.1196V7.88542C8.55486 5.71799 10.841 4.30768 13.3499 4.0949V19.9102Z" fill="#131429"/>
<path d="M17.3035 6.82645C17.0017 6.61366 16.586 6.68789 16.3732 6.99469C16.1604 7.29655 16.2346 7.71222 16.5414 7.925C17.8775 8.85531 18.6742 10.3844 18.6742 12.0075C18.6742 13.6306 17.8775 15.1596 16.5414 16.0899C16.2396 16.3027 16.1654 16.7184 16.3732 17.0203C16.5019 17.2083 16.7097 17.3073 16.9225 17.3073C17.0561 17.3073 17.1897 17.2677 17.3035 17.1885C18.9959 16.0058 20.0103 14.071 20.0103 12.0124C20.0103 9.95387 18.9959 8.00418 17.3035 6.82645Z" fill="#131429"/>
<path d="M19.887 4.06021C19.5851 3.84743 19.1695 3.92165 18.9567 4.22846C18.7439 4.53031 18.8181 4.94598 19.1249 5.15877C21.3666 6.72248 22.7027 9.28083 22.7027 12.0025C22.7027 14.7241 21.3666 17.2874 19.1249 18.8462C18.8231 19.059 18.7489 19.4746 18.9567 19.7765C19.0854 19.9645 19.2932 20.0635 19.506 20.0635C19.6396 20.0635 19.7732 20.0239 19.887 19.9447C22.4849 18.1336 24.0388 15.1645 24.0388 12.0025C24.0388 8.84042 22.4899 5.87134 19.887 4.06021Z" fill="#131429"/>
</g>
<defs>
<clipPath id="clip0">
<path d="M0.0385742 0H24.0386V24H0.0385742V0Z" fill="white"/>
</clipPath>
</defs>
</svg>
