<svg width="24" height="25" viewBox="0 0 24 25" fill="none" xmlns="http://www.w3.org/2000/svg">
<path d="M23.5646 10.7982L19.4568 5.08496C18.9157 4.33256 17.8186 3.76575 16.9085 3.76575H1.92846C0.86584 3.76575 0 4.64856 0 5.73202V18.7385C0 19.822 0.86584 20.7048 1.92846 20.7048H16.9085C17.8235 20.7048 18.9206 20.138 19.4568 19.3856L23.5646 13.6724C24.1451 12.8698 24.1451 11.6058 23.5646 10.7982ZM22.4922 12.8798L18.3843 18.5931C18.099 18.9943 17.3906 19.3555 16.9036 19.3555H1.92846C1.59885 19.3555 1.32828 19.0796 1.32828 18.7435V5.73202C1.32828 5.39595 1.59885 5.12007 1.92846 5.12007H16.9085C17.3955 5.12007 18.099 5.48624 18.3893 5.8825L22.4971 11.5957C22.7332 11.9318 22.7332 12.5438 22.4922 12.8798Z" fill="#131429"/>
</svg>
