<svg width="24" height="24" viewBox="0 0 24 24" fill="none" xmlns="http://www.w3.org/2000/svg">
<g clip-path="url(#clip0)">
<path d="M22.5164 12.0847C22.4805 11.8896 22.3624 11.7253 22.193 11.6227C18.2914 9.29711 16.0018 8.81455 14.3282 8.46545C14.1126 8.41925 13.9021 8.37818 13.7019 8.33198L12.978 2.38203C12.9524 1.06781 11.8743 0 10.5549 0C9.25097 0 8.19857 1.0062 8.13183 2.29989C8.13183 2.32556 8.12669 2.3461 8.12669 2.37176V5.87294L8.07022 14.4205L7.14616 13.707C6.96648 13.5529 5.71386 12.5416 4.16349 12.5416C3.11621 12.5416 2.18701 12.9831 1.40156 13.8456C1.18081 14.0868 1.16028 14.4462 1.35022 14.7132C1.41696 14.8056 3.00841 17.0336 5.50338 19.3027C6.98188 20.6426 8.47065 21.7155 9.92862 22.4907C11.787 23.4764 13.6043 23.9846 15.3344 24C15.3601 24 15.3909 24 15.4165 24C17.778 24 19.6159 23.2197 20.8788 21.6847C23.692 18.2657 22.5626 12.3363 22.5164 12.0847ZM19.8058 20.812C18.8202 22.0133 17.3417 22.619 15.4165 22.619C15.3909 22.619 15.3703 22.619 15.3447 22.619C11.9102 22.5934 8.61439 20.2575 6.45824 18.3016C4.73846 16.741 3.43964 15.1701 2.84413 14.4C3.24969 14.0868 3.68605 13.9328 4.16862 13.9328C5.28263 13.9328 6.24776 14.7594 6.2529 14.7696C6.26316 14.7799 6.27856 14.7902 6.28883 14.8004L8.33717 16.3765C8.54766 16.5356 8.82488 16.5664 9.06616 16.4483C9.30231 16.3354 9.45119 16.0941 9.45632 15.8323L9.52306 5.88321V2.41797C9.52306 2.41283 9.52306 2.40257 9.52306 2.39743C9.53846 1.83273 9.99536 1.39123 10.5601 1.39123C11.135 1.39123 11.5971 1.8584 11.5971 2.42824C11.5971 2.4539 11.5971 2.48471 11.6022 2.51037L12.3774 8.97369C12.4133 9.25604 12.6135 9.48706 12.8856 9.55893C13.2552 9.65647 13.6351 9.73861 14.0407 9.82075C15.6629 10.1596 17.6754 10.5857 21.2073 12.6494C21.3819 13.8404 21.8798 18.2913 19.8058 20.812Z" fill="#131429"/>
</g>
<defs>
<clipPath id="clip0">
<path d="M0 0H24V24H0V0Z" fill="white"/>
</clipPath>
</defs>
</svg>
