<svg width="25" height="24" viewBox="0 0 25 24" fill="none" xmlns="http://www.w3.org/2000/svg">
<path d="M22.9674 3.45395H17.9739V2.6398C17.9739 1.18421 16.7897 0 15.3341 0H10.5874C9.13184 0 7.94763 1.18421 7.94763 2.6398V3.45395H2.9542C2.58414 3.45395 2.28809 3.75 2.28809 4.12007C2.28809 4.49013 2.58414 4.78618 2.9542 4.78618H4.15815V20.4375C4.15815 22.4013 5.75684 24 7.72065 24H18.2009C20.1647 24 21.7634 22.4013 21.7634 20.4375V4.78618H22.9674C23.3374 4.78618 23.6335 4.49013 23.6335 4.12007C23.6335 3.75 23.3374 3.45395 22.9674 3.45395ZM9.27986 2.6398C9.27986 1.91941 9.86703 1.33224 10.5874 1.33224H15.3341C16.0545 1.33224 16.6417 1.91941 16.6417 2.6398V3.45395H9.27986V2.6398ZM20.4312 20.4375C20.4312 21.6661 19.4295 22.6678 18.2009 22.6678H7.72065C6.49203 22.6678 5.49039 21.6661 5.49039 20.4375V4.78618H20.4361V20.4375H20.4312Z" fill="#131429"/>
<path d="M12.961 20.2796C13.3311 20.2796 13.6272 19.9835 13.6272 19.6135V7.84044C13.6272 7.47037 13.3311 7.17432 12.961 7.17432C12.591 7.17432 12.2949 7.47037 12.2949 7.84044V19.6085C12.2949 19.9786 12.591 20.2796 12.961 20.2796Z" fill="#131429"/>
<path d="M8.61387 19.5445C8.98394 19.5445 9.27999 19.2484 9.27999 18.8783V8.57078C9.27999 8.20072 8.98394 7.90466 8.61387 7.90466C8.24381 7.90466 7.94775 8.20072 7.94775 8.57078V18.8783C7.94775 19.2484 8.24874 19.5445 8.61387 19.5445Z" fill="#131429"/>
<path d="M17.3077 19.5445C17.6778 19.5445 17.9738 19.2484 17.9738 18.8783V8.57078C17.9738 8.20072 17.6778 7.90466 17.3077 7.90466C16.9377 7.90466 16.6416 8.20072 16.6416 8.57078V18.8783C16.6416 19.2484 16.9377 19.5445 17.3077 19.5445Z" fill="#131429"/>
</svg>
