<svg width="25" height="24" viewBox="0 0 25 24" fill="none" xmlns="http://www.w3.org/2000/svg">
<g clip-path="url(#clip0)">
<path d="M24.1343 5.12983C23.8493 4.71912 23.2848 4.61695 22.8738 4.90207L20.0614 6.85348C19.806 7.03064 19.6594 7.32638 19.6728 7.63686C19.6809 7.82308 19.6849 7.9977 19.6849 8.17063C19.6849 13.9193 15.3106 19.8653 7.99038 19.8653C6.49811 19.8653 5.03206 19.5813 3.66188 19.0334L8.00197 17.8194C8.48369 17.6847 8.76495 17.185 8.63018 16.7032C8.49541 16.2216 7.99617 15.9403 7.51397 16.075L0.957645 17.9089C0.613955 18.0051 0.358783 18.294 0.305889 18.647C0.253116 18.9999 0.412402 19.3511 0.712859 19.5437C2.88949 20.9391 5.40606 21.6768 7.99038 21.6768C13.0693 21.6768 16.2503 19.2773 18.0247 17.2644C20.231 14.7613 21.4963 11.4468 21.4963 8.17076C21.4963 8.13489 21.4962 8.09902 21.496 8.06304L23.9065 6.39047C24.3174 6.10523 24.4194 5.54091 24.1343 5.12983Z" fill="black"/>
<path d="M2.29529 4.84742L11.4231 9.47444C11.5526 9.54014 11.6929 9.57238 11.8325 9.57238C12.0313 9.57238 12.2289 9.50705 12.3915 9.3794C12.6684 9.16227 12.7945 8.80445 12.7148 8.4616C12.6543 8.20148 12.6238 7.93073 12.6238 7.65708C12.6238 5.71486 14.2042 4.13468 16.1468 4.13468C17.1178 4.13468 18.0553 4.54008 18.7185 5.24702C18.9663 5.51125 19.3478 5.60219 19.6884 5.47853L22.5055 4.45494C22.9757 4.28406 23.2184 3.76454 23.0475 3.29441C22.8767 2.82416 22.3567 2.58179 21.887 2.75243L19.5945 3.58533C18.637 2.77719 17.4108 2.32312 16.1468 2.32312C13.3777 2.32312 11.0947 4.44383 10.8366 7.14614L3.1143 3.23174C2.66809 3.00543 2.12308 3.18392 1.8969 3.63001C1.67071 4.07623 1.84907 4.62123 2.29529 4.84742Z" fill="black"/>
<path d="M1.82803 10.2712L3.83366 10.8249C3.91433 10.8472 3.99536 10.8577 4.07518 10.8577C4.47237 10.8577 4.83683 10.5943 4.94769 10.1928C5.08089 9.71072 4.79783 9.21185 4.31574 9.07865L2.31012 8.52495C1.82827 8.39187 1.32916 8.67469 1.19596 9.1569C1.06288 9.63923 1.34583 10.138 1.82803 10.2712Z" fill="black"/>
<path d="M3.58669 12.967C3.08686 12.9859 2.69704 13.4064 2.716 13.9063C2.73447 14.3945 3.13601 14.7777 3.62051 14.7777C3.6321 14.7777 3.64369 14.7774 3.65529 14.7771L5.65536 14.7012C6.1552 14.6823 6.54502 14.2618 6.52618 13.7618C6.50722 13.262 6.08564 12.8727 5.58689 12.8911L3.58669 12.967Z" fill="black"/>
</g>
<defs>
<clipPath id="clip0">
<path d="M0.295898 0H24.2959V24H0.295898V0Z" fill="white"/>
</clipPath>
</defs>
</svg>
