<svg width="25" height="24" viewBox="0 0 25 24" fill="none" xmlns="http://www.w3.org/2000/svg">
<g clip-path="url(#clip0)">
<path d="M12.9805 23.5385C19.5971 23.5385 24.9805 18.2586 24.9805 11.7692C24.9805 5.27983 19.5971 0 12.9805 0C6.36383 0 0.980469 5.27983 0.980469 11.7692C0.980469 18.2586 6.36383 23.5385 12.9805 23.5385ZM12.9805 1.17596C18.9364 1.17596 23.7814 5.92781 23.7814 11.7692C23.7814 17.6106 18.9364 22.3625 12.9805 22.3625C7.02451 22.3625 2.17949 17.6106 2.17949 11.7692C2.17949 5.92781 7.02451 1.17596 12.9805 1.17596Z" fill="#131429"/>
<path d="M10.034 10.3772L12.3832 8.07331V16.8762C12.3832 17.2026 12.6523 17.4666 12.9851 17.4666C13.3179 17.4666 13.5871 17.2026 13.5871 16.8762V8.07811L15.9362 10.382C16.0536 10.4972 16.2053 10.5548 16.3619 10.5548C16.5186 10.5548 16.6703 10.4972 16.7877 10.382C17.0226 10.1516 17.0226 9.78206 16.7877 9.55167L13.4158 6.24457C13.1809 6.01418 12.804 6.01418 12.5691 6.24457L9.19718 9.55167C8.96227 9.78206 8.96227 10.1516 9.19718 10.382C9.41741 10.6076 9.79914 10.6076 10.034 10.3772Z" fill="#131429"/>
</g>
<defs>
<clipPath id="clip0">
<path d="M0.980469 0H24.9805V23.5385H0.980469V0Z" fill="white"/>
</clipPath>
</defs>
</svg>
