<svg width="24" height="24" viewBox="0 0 24 24" fill="none" xmlns="http://www.w3.org/2000/svg">
<path d="M19.5188 6.70203C19.2622 5.17705 18.5071 3.78532 17.3523 2.72918C16.0691 1.5546 14.401 0.908081 12.6638 0.908081C11.3214 0.908081 10.0136 1.29303 8.89328 2.01851C7.96052 2.6206 7.18569 3.43492 6.63788 4.39235C6.40099 4.34793 6.15423 4.32326 5.90746 4.32326C3.80999 4.32326 2.10241 6.03084 2.10241 8.12831C2.10241 8.39975 2.13202 8.66132 2.18137 8.91795C0.824183 9.905 0 11.4941 0 13.1869C0 14.554 0.508328 15.8816 1.43615 16.9328C2.38865 18.0086 3.64713 18.6453 4.98951 18.7193C5.00432 18.7193 5.01419 18.7193 5.02899 18.7193H9.27329C9.64343 18.7193 9.93954 18.4232 9.93954 18.0531C9.93954 17.6829 9.64343 17.3868 9.27329 17.3868H5.04874C3.03023 17.2634 1.33251 15.3436 1.33251 13.182C1.33251 11.7853 2.08266 10.4824 3.2918 9.77668C3.5731 9.61382 3.69155 9.27329 3.58297 8.9673C3.48427 8.7008 3.43492 8.41949 3.43492 8.11844C3.43492 6.75632 4.54534 5.6459 5.90746 5.6459C6.19864 5.6459 6.48489 5.69525 6.75139 5.79395C7.07711 5.9124 7.43738 5.76434 7.58544 5.45342C8.50833 3.49414 10.5022 2.23072 12.6687 2.23072C15.5805 2.23072 17.984 4.41209 18.2603 7.30413C18.2899 7.60518 18.517 7.84701 18.8131 7.89636C21.0093 8.27144 22.6675 10.2998 22.6675 12.6144C22.6675 15.0672 20.7378 17.1993 18.359 17.3819H14.7218C14.3516 17.3819 14.0555 17.678 14.0555 18.0481C14.0555 18.4183 14.3516 18.7144 14.7218 18.7144H18.3837C18.3985 18.7144 18.4133 18.7144 18.4331 18.7144C19.9383 18.6058 21.3449 17.9149 22.3911 16.76C23.4325 15.6151 24 14.1444 24 12.6144C23.9951 9.84577 22.1049 7.3831 19.5188 6.70203Z" fill="#131429"/>
<path d="M15.9998 13.8186C16.2614 13.5571 16.2614 13.1376 15.9998 12.876L12.4711 9.34731C12.3478 9.22393 12.175 9.1499 12.0023 9.1499C11.8296 9.1499 11.6568 9.219 11.5335 9.34731L8.00477 12.876C7.7432 13.1376 7.7432 13.5571 8.00477 13.8186C8.13308 13.9469 8.30582 14.016 8.47362 14.016C8.64141 14.016 8.81415 13.9519 8.94246 13.8186L11.336 11.425V22.4257C11.336 22.7958 11.6322 23.0919 12.0023 23.0919C12.3724 23.0919 12.6686 22.7958 12.6686 22.4257V11.425L15.0621 13.8186C15.3188 14.0802 15.7383 14.0802 15.9998 13.8186Z" fill="#131429"/>
</svg>
