<svg width="24" height="24" viewBox="0 0 24 24" fill="none" xmlns="http://www.w3.org/2000/svg">
<path d="M23.3124 11.7225C22.9304 11.7225 22.6248 12.0281 22.6248 12.4101V18.6648C22.6248 20.3659 21.2394 21.7462 19.5433 21.7462H4.45671C2.75552 21.7462 1.37521 20.3608 1.37521 18.6648V12.3082C1.37521 11.9262 1.06961 11.6206 0.687606 11.6206C0.305603 11.6206 0 11.9262 0 12.3082V18.6648C0 21.1249 2.0017 23.1215 4.45671 23.1215H19.5433C22.0034 23.1215 24 21.1198 24 18.6648V12.4101C24 12.0332 23.6944 11.7225 23.3124 11.7225Z" fill="#131429"/>
<path d="M8.11356 6.42535L11.3122 3.22671V17.1775C11.3122 17.5595 11.6178 17.8651 11.9998 17.8651C12.3818 17.8651 12.6874 17.5595 12.6874 17.1775V3.22671L15.8861 6.42535C16.0185 6.55778 16.1968 6.62909 16.3699 6.62909C16.5482 6.62909 16.7214 6.56287 16.8538 6.42535C17.1237 6.1554 17.1237 5.72247 16.8538 5.45252L12.4837 1.0824C12.3563 0.955063 12.1781 0.878662 11.9998 0.878662C11.8164 0.878662 11.6433 0.949969 11.5159 1.0824L7.14582 5.45252C6.87587 5.72247 6.87587 6.1554 7.14582 6.42535C7.41068 6.69021 7.84871 6.69021 8.11356 6.42535Z" fill="#131429"/>
</svg>
