<svg width="24" height="25" viewBox="0 0 24 25" fill="none" xmlns="http://www.w3.org/2000/svg">
<g clip-path="url(#clip0)">
<path d="M19.8108 3.3905H4.18927C1.87927 3.3905 0 5.2972 0 7.64078V16.7023C0 19.0459 1.87927 20.9525 4.18927 20.9525H19.811C22.1208 20.9525 24.0001 19.0459 24.0001 16.7023V7.64078C24 5.2972 22.1207 3.3905 19.8108 3.3905ZM22.283 16.7022C22.283 18.0855 21.174 19.2109 19.8108 19.2109H4.18927C2.826 19.2109 1.71696 18.0855 1.71696 16.7022V7.64066C1.71696 6.25734 2.826 5.13199 4.18927 5.13199H19.811C21.1741 5.13199 22.2831 6.25734 22.2831 7.64066V16.7022H22.283Z" fill="#131429"/>
<path d="M16.6083 11.4439L10.2446 7.18891C9.98095 7.01256 9.64317 6.99747 9.36502 7.14921C9.08699 7.30106 8.91357 7.59561 8.91357 7.91593V16.427C8.91357 16.7474 9.08699 17.0418 9.36502 17.1938C9.49242 17.2634 9.63241 17.2978 9.77194 17.2978C9.937 17.2978 10.1017 17.2496 10.2446 17.1539L16.6083 12.8979C16.8492 12.7367 16.9943 12.4636 16.9943 12.1708C16.9943 11.8782 16.8492 11.6051 16.6083 11.4439ZM10.6305 14.8099V9.53284L14.5762 12.171L10.6305 14.8099Z" fill="#131429"/>
</g>
<defs>
<clipPath id="clip0">
<path d="M0 0H24V24.3429H0V0Z" fill="white"/>
</clipPath>
</defs>
</svg>
